<svg width="40" height="40" viewBox="0 0 40 40" fill="none" xmlns="http://www.w3.org/2000/svg">
<path d="M20.9615 20.6077H22.7335L23.4423 17.9615H20.9615V16.6385C20.9615 15.9571 20.9615 15.3154 22.3791 15.3154H23.4423V13.0926C23.2112 13.0642 22.3387 13 21.4173 13C19.4929 13 18.1264 14.0962 18.1264 16.1092V17.9615H16V20.6077H18.1264V26.2308H20.9615V20.6077Z" fill="white"/>
<path d="M20.9615 20.1077H20.4615V20.6077V25.7308H18.6264V20.6077V20.1077H18.1264H16.5V18.4615H18.1264H18.6264V17.9615V16.1092C18.6264 15.2222 18.9233 14.5879 19.3853 14.1708C19.8543 13.7473 20.5469 13.5 21.4173 13.5C22.0009 13.5 22.5618 13.5263 22.9423 13.5519V14.8154H22.3791C21.6206 14.8154 21.0545 14.9836 20.7333 15.4289C20.5808 15.6401 20.5175 15.8711 20.4887 16.074C20.4615 16.2654 20.4615 16.4635 20.4615 16.6236C20.4615 16.6286 20.4615 16.6335 20.4615 16.6385V17.9615V18.4615H20.9615H22.7908L22.3498 20.1077H20.9615Z" stroke="url(#paint0_linear_3103_1371)" stroke-opacity="0.32"/>
<rect width="40" height="40" rx="8" fill="white" fill-opacity="0.02"/>
<rect x="0.5" y="0.5" width="39" height="39" rx="7.5" stroke="url(#paint1_linear_3103_1371)" stroke-opacity="0.32"/>
<defs>
<linearGradient id="paint0_linear_3103_1371" x1="14.7263" y1="10.3125" x2="26.3937" y2="11.5614" gradientUnits="userSpaceOnUse">
<stop stop-color="white"/>
<stop offset="0.395833" stop-color="white" stop-opacity="0"/>
<stop offset="0.635417" stop-color="white" stop-opacity="0"/>
<stop offset="1" stop-color="white"/>
</linearGradient>
<linearGradient id="paint1_linear_3103_1371" x1="-6.84564" y1="-8.125" x2="54.3648" y2="3.52323" gradientUnits="userSpaceOnUse">
<stop stop-color="white"/>
<stop offset="0.395833" stop-color="white" stop-opacity="0"/>
<stop offset="0.635417" stop-color="white" stop-opacity="0"/>
<stop offset="1" stop-color="white"/>
</linearGradient>
</defs>
</svg>
