<svg width="32" height="32" viewBox="0 0 32 32" fill="none" xmlns="http://www.w3.org/2000/svg">
<g clip-path="url(#clip0_1211_479)">
<path d="M31.6197 16.2989C31.6197 14.9879 31.5134 14.0312 31.2831 13.0391H16.3125V18.9564H25.0999C24.9228 20.4269 23.9661 22.6415 21.8401 24.1296L21.8103 24.3277L26.5437 27.9947L26.8716 28.0274C29.8834 25.2458 31.6197 21.1533 31.6197 16.2989Z" fill="#4285F4"/>
<path d="M16.3107 31.8891C20.6158 31.8891 24.2299 30.4717 26.8698 28.0269L21.8383 24.1291C20.4918 25.0681 18.6847 25.7236 16.3107 25.7236C12.0941 25.7236 8.51538 22.9422 7.23966 19.0977L7.05267 19.1135L2.13077 22.9226L2.06641 23.1016C4.68845 28.3102 10.0743 31.8891 16.3107 31.8891Z" fill="#34A853"/>
<path d="M7.2412 19.0997C6.90459 18.1076 6.70978 17.0445 6.70978 15.9461C6.70978 14.8476 6.90459 13.7846 7.22349 12.7925L7.21458 12.5812L2.231 8.71094L2.06795 8.7885C0.987279 10.95 0.367188 13.3772 0.367188 15.9461C0.367188 18.515 0.987279 20.9421 2.06795 23.1036L7.2412 19.0997Z" fill="#FBBC05"/>
<path d="M16.3107 6.16537C19.3048 6.16537 21.3244 7.45869 22.4761 8.53948L26.9761 4.14571C24.2124 1.57679 20.6158 0 16.3107 0C10.0743 0 4.68845 3.57875 2.06641 8.78742L7.22195 12.7915C8.51538 8.94693 12.0941 6.16537 16.3107 6.16537Z" fill="#EB4335"/>
</g>
<defs>
<clipPath id="clip0_1211_479">
<rect width="32" height="32" fill="white"/>
</clipPath>
</defs>
</svg>
