<svg width="40" height="40" viewBox="0 0 40 40" fill="none" xmlns="http://www.w3.org/2000/svg">
<path d="M16.6031 15.2869C16.6029 15.628 16.4656 15.9551 16.2214 16.1962C15.9772 16.4373 15.6461 16.5727 15.3009 16.5725C14.9557 16.5723 14.6247 16.4367 14.3808 16.1953C14.1368 15.954 13.9998 15.6267 14 15.2856C14.0002 14.9445 14.1375 14.6174 14.3817 14.3763C14.6259 14.1352 14.957 13.9998 15.3022 14C15.6474 14.0002 15.9784 14.1358 16.2224 14.3772C16.4663 14.6185 16.6033 14.9458 16.6031 15.2869ZM16.6422 17.525H14.039V25.5769H16.6422V17.525ZM20.7551 17.525H18.165V25.5769H20.7291V21.3516C20.7291 18.9977 23.8333 18.7791 23.8333 21.3516V25.5769H26.4038V20.4769C26.4038 16.5088 21.8093 16.6568 20.7291 18.6054L20.7551 17.525Z" fill="white"/>
<path d="M20.2429 18.025L20.2292 18.5934L21.1664 18.8479C21.3656 18.4884 21.7481 18.1794 22.2522 17.9839C22.7534 17.7896 23.3381 17.7231 23.8888 17.8155C24.4368 17.9075 24.9331 18.1529 25.2921 18.5649C25.648 18.9733 25.9038 19.5853 25.9038 20.4769V25.0769H24.3333V21.3516C24.3333 20.6065 24.1065 20.005 23.7097 19.5898C23.314 19.1759 22.7851 18.9861 22.2636 19.0045C21.2036 19.0418 20.2291 19.9204 20.2291 21.3516V25.0769H18.665V18.025H20.2429ZM16.1031 15.2866C16.103 15.4933 16.0199 15.6926 15.8702 15.8404C15.7202 15.9885 15.5156 16.0726 15.3012 16.0725C15.0867 16.0724 14.8822 15.988 14.7324 15.8399C14.5828 15.6919 14.4999 15.4925 14.5 15.2859C14.5001 15.0793 14.5832 14.8799 14.733 14.7321C14.8829 14.584 15.0875 14.4999 15.302 14.5C15.5164 14.5001 15.7209 14.5845 15.8707 14.7327C16.0203 14.8806 16.1032 15.08 16.1031 15.2866ZM14.539 25.0769V18.025H16.1422V25.0769H14.539Z" stroke="url(#paint0_linear_3103_1374)" stroke-opacity="0.32"/>
<rect width="40" height="40" rx="8" fill="white" fill-opacity="0.02"/>
<rect x="0.5" y="0.5" width="39" height="39" rx="7.5" stroke="url(#paint1_linear_3103_1374)" stroke-opacity="0.32"/>
<defs>
<linearGradient id="paint0_linear_3103_1374" x1="11.8772" y1="11.6484" x2="30.7607" y2="15.4986" gradientUnits="userSpaceOnUse">
<stop stop-color="white"/>
<stop offset="0.395833" stop-color="white" stop-opacity="0"/>
<stop offset="0.635417" stop-color="white" stop-opacity="0"/>
<stop offset="1" stop-color="white"/>
</linearGradient>
<linearGradient id="paint1_linear_3103_1374" x1="-6.84564" y1="-8.125" x2="54.3648" y2="3.52323" gradientUnits="userSpaceOnUse">
<stop stop-color="white"/>
<stop offset="0.395833" stop-color="white" stop-opacity="0"/>
<stop offset="0.635417" stop-color="white" stop-opacity="0"/>
<stop offset="1" stop-color="white"/>
</linearGradient>
</defs>
</svg>
