<?xml version="1.0" encoding="UTF-8"?>
<svg xmlns="http://www.w3.org/2000/svg" width="163" height="48" viewBox="0 0 163 48" fill="none">
  <g clip-path="url(#clip0_1206_49638)">
    <path d="M3.56456e-08 20.0037C0.165259 19.2144 0.728174 18.8404 1.45118 18.6805C2.46598 18.4561 3.48594 18.2395 4.51365 18.0795C6.40122 17.7855 8.29395 17.4915 10.1919 17.2774C11.7825 17.0968 13.386 17.022 14.9844 16.9111C18.9713 16.6326 22.9633 16.6764 26.9502 16.8673C29.3645 16.9808 31.7789 17.1845 34.1829 17.4425C36.5094 17.6927 38.8282 18.046 41.0799 18.7192C41.382 18.8095 41.6918 18.941 41.9423 19.1267C42.4071 19.4723 42.5052 19.9521 42.2573 20.4731C42.1566 20.682 42.0146 20.878 41.8597 21.0534C40.4085 22.7016 38.8566 24.2466 37.2298 25.7219C34.0228 28.6287 30.6169 31.2854 27.0561 33.7434C24.6598 35.3967 22.2687 37.0629 19.826 38.6466C18.3154 39.6267 16.7144 40.4701 15.1471 41.3651C13.3266 42.4046 11.4365 43.3022 9.50241 44.1095C8.91884 44.3519 8.31719 44.5557 7.71296 44.7414C7.1423 44.9168 6.57422 44.615 6.48385 44.0269C6.4038 43.5188 6.40122 42.972 6.49676 42.4665C6.84793 40.6017 7.25592 38.7472 7.63808 36.8875C7.69747 36.5961 7.84724 36.4052 8.12095 36.2582C10.3494 35.0717 12.6062 33.9343 14.7804 32.6575C18.6562 30.3826 22.403 27.904 25.9354 25.1132C26.0542 25.0203 26.1704 24.9249 26.284 24.8269C26.2969 24.8166 26.2995 24.7882 26.3201 24.7315C26.222 24.7186 26.1342 24.6954 26.0464 24.6954C23.5185 24.6618 20.9905 24.5844 18.4652 24.6102C16.7248 24.6283 14.987 24.7805 13.2466 24.8811C12.6553 24.9146 12.0691 24.9765 11.4778 25.0074C11.2015 25.0203 11.0956 25.1751 11.0182 25.4124C10.525 26.9316 10.024 28.4482 9.52307 29.9674C9.51016 30.0061 9.4895 30.0422 9.45593 30.1144C9.33199 30.0215 9.21837 29.9467 9.11509 29.859C6.9693 28.0742 4.99393 26.1114 3.07279 24.097C2.24391 23.2278 1.44602 22.3224 0.681695 21.3939C0.384745 21.0328 0.227232 20.5582 0.00516439 20.1352C0.00516439 20.0914 0.00516439 20.0501 0.00516439 20.0063L3.56456e-08 20.0037Z" fill="white" fill-opacity="0.2"></path>
    <path d="M153.348 33.7073C152.01 33.5912 150.662 33.55 149.343 33.3333C148.612 33.2121 147.889 32.869 147.236 32.5002C146.229 31.9328 145.916 30.9398 145.906 29.8384C145.906 29.516 146.146 29.2478 146.459 29.1652C146.52 29.1497 146.585 29.1291 146.65 29.1291C147.982 29.1369 149.314 29.1394 150.647 29.1626C150.998 29.1678 151.295 29.3561 151.489 29.6398C151.822 30.1324 152.279 30.4136 152.86 30.4239C153.738 30.442 154.616 30.411 155.494 30.3852C155.648 30.3801 155.806 30.3104 155.953 30.2511C156.374 30.0783 156.495 29.9003 156.49 29.5444C156.485 29.1549 156.229 28.9821 155.912 28.9125C155.315 28.7809 154.714 28.6623 154.11 28.59C153.033 28.4611 151.946 28.4018 150.871 28.2573C150.29 28.1799 149.709 28.0303 149.154 27.8395C147.569 27.2927 146.972 26.132 147.094 24.5638C147.215 22.9956 148.134 22.0052 149.495 21.3526C150.616 20.8161 151.814 20.5969 153.038 20.4628C155.259 20.2178 157.464 20.2771 159.641 20.7903C160.699 21.0405 161.709 21.4506 162.303 22.4462C162.517 22.8048 162.644 23.2303 162.744 23.643C162.848 24.066 162.605 24.3755 162.176 24.4606C162.008 24.4942 161.835 24.5096 161.665 24.5096C160.653 24.5148 159.643 24.5096 158.631 24.5122C157.996 24.5122 157.425 24.3962 157.002 23.839C156.872 23.6688 156.614 23.5631 156.395 23.5037C155.522 23.269 154.634 23.2226 153.745 23.4212C153.521 23.4728 153.306 23.5863 153.1 23.6972C152.867 23.8236 152.798 24.0454 152.806 24.3007C152.813 24.5612 152.979 24.7057 153.193 24.7521C153.707 24.863 154.223 24.9713 154.742 25.0229C155.855 25.1313 156.976 25.1648 158.083 25.3041C159.137 25.4356 160.18 25.6445 161.099 26.2455C162.205 26.9703 162.543 28.0355 162.385 29.2684C162.125 31.3189 160.903 32.575 158.755 33.1657C157.487 33.5139 156.201 33.6377 154.897 33.6428C154.381 33.6454 153.864 33.6428 153.348 33.6428C153.348 33.6635 153.345 33.6841 153.343 33.7073L153.348 33.7073Z" fill="white" fill-opacity="0.2"></path>
    <path d="M83.4121 33.6815C82.1701 33.5938 80.9203 33.5526 79.6834 33.4055C78.839 33.3049 78.0437 32.9722 77.3207 32.5105C76.3447 31.8863 76.0064 30.9346 76.0064 29.8333C76.0064 29.4799 76.2362 29.2374 76.59 29.1601C76.7552 29.124 76.9308 29.1111 77.1012 29.1085C78.1444 29.1033 79.1876 29.1085 80.2308 29.1007C80.8635 29.0956 81.3928 29.2684 81.7492 29.8333C81.9506 30.1531 82.2682 30.3182 82.6297 30.3801C83.6212 30.5477 84.6205 30.5812 85.6121 30.3878C85.829 30.3465 86.0433 30.2537 86.2447 30.1557C86.5004 30.0319 86.6114 29.8075 86.5907 29.5212C86.5701 29.2426 86.4281 29.0363 86.1647 28.9769C85.5062 28.8299 84.8478 28.6674 84.179 28.5926C82.7175 28.4276 81.2327 28.4301 79.8099 28.0046C79.34 27.8653 78.8571 27.7054 78.4465 27.45C77.4782 26.8465 77.1426 25.8999 77.1761 24.7959C77.2252 23.1426 78.1109 22.0593 79.5517 21.3707C80.6827 20.8316 81.8912 20.5995 83.1255 20.4654C85.3436 20.2229 87.5565 20.2616 89.7255 20.8007C90.4098 20.9709 91.076 21.301 91.6802 21.6725C92.4058 22.1161 92.7286 22.8744 92.8551 23.6998C92.9119 24.0634 92.7002 24.3549 92.3464 24.4503C92.2638 24.4735 92.176 24.4942 92.0934 24.4942C90.761 24.4864 89.4286 24.4813 88.0962 24.4606C87.7605 24.4555 87.4687 24.3007 87.2673 24.0247C87.0452 23.7178 86.7405 23.5605 86.3842 23.4779C85.5346 23.2819 84.6799 23.2329 83.8278 23.4315C83.6032 23.4831 83.3475 23.5631 83.1926 23.7178C83.0377 23.8752 82.9137 24.1408 82.9215 24.3523C82.9292 24.5019 83.159 24.7237 83.3294 24.7676C83.8149 24.8965 84.3158 24.9817 84.8168 25.0307C85.9504 25.1364 87.0943 25.1751 88.2253 25.3092C89.1833 25.4227 90.1335 25.6316 90.9882 26.1217C91.9126 26.653 92.4161 27.432 92.4626 28.5281C92.5556 30.7128 91.4323 32.3429 89.3459 33.0238C87.9077 33.4932 86.4306 33.6506 84.9304 33.6557C84.4243 33.6557 83.9182 33.6557 83.4147 33.6557L83.4147 33.6893L83.4121 33.6815Z" fill="white" fill-opacity="0.2"></path>
    <path d="M135.533 20.7852C137.059 20.7852 138.588 20.7749 140.114 20.7878C141.051 20.7955 141.978 20.8909 142.864 21.2469C143.879 21.657 144.481 22.3998 144.643 23.4728C144.837 24.7573 144.682 25.9747 143.876 27.0554C143.474 27.597 142.944 27.9298 142.33 28.1619C141.521 28.4637 141.514 28.4714 141.821 29.2632C142.167 30.1531 142.523 31.0378 142.89 31.9173C143.215 32.6962 142.88 33.2198 142.035 33.2198C140.992 33.2198 139.949 33.2198 138.906 33.2172C138.157 33.2147 137.968 33.0831 137.702 32.3919C137.382 31.5614 137.059 30.7308 136.755 29.8952C136.672 29.6708 136.569 29.5805 136.316 29.5856C135.273 29.6037 134.229 29.6037 133.186 29.5908C132.961 29.5882 132.869 29.6346 132.827 29.8719C132.683 30.7179 132.512 31.5588 132.347 32.4022C132.238 32.9567 131.965 33.2069 131.397 33.2147C130.353 33.2276 129.31 33.2301 128.267 33.2095C127.627 33.1966 127.301 32.802 127.418 32.1623C127.689 30.6741 127.983 29.191 128.272 27.7054C128.654 25.7374 129.029 23.7668 129.421 21.7988C129.579 21.0096 129.853 20.7878 130.658 20.7826C132.282 20.7723 133.907 20.78 135.531 20.78L135.533 20.7852ZM133.468 26.6066C134.924 26.6066 136.308 26.6375 137.689 26.586C138.041 26.5731 138.428 26.3538 138.717 26.1294C139.123 25.8148 139.138 25.3247 139.001 24.8604C138.877 24.4323 138.495 24.3807 138.121 24.3549C138.066 24.3497 138.012 24.3472 137.961 24.3472C136.778 24.3472 135.598 24.3472 134.415 24.3523C133.888 24.3549 133.883 24.3626 133.783 24.8811C133.674 25.4356 133.579 25.9927 133.465 26.6118L133.468 26.6066Z" fill="white" fill-opacity="0.2"></path>
    <path d="M116.374 31.5923C115.416 31.5923 114.46 31.5975 113.502 31.5872C113.288 31.5872 113.169 31.6645 113.066 31.8399C112.88 32.1546 112.671 32.4538 112.477 32.7633C112.291 33.0651 112.02 33.2121 111.671 33.2121C110.38 33.2173 109.089 33.225 107.801 33.2172C107.351 33.2172 107.114 32.8226 107.287 32.4022C107.328 32.3042 107.38 32.2088 107.439 32.1211C109.712 28.6932 111.992 25.268 114.256 21.835C114.739 21.105 115.377 20.762 116.255 20.7775C117.546 20.8007 118.837 20.7826 120.128 20.7775C121.096 20.7749 121.657 21.154 121.946 22.0929C122.326 23.3232 122.666 24.5638 123.02 25.7993C123.64 27.9633 124.26 30.1273 124.872 32.2939C125.016 32.8046 124.841 33.0728 124.322 33.1708C124.143 33.2044 123.957 33.2095 123.777 33.2095C122.744 33.2121 121.711 33.2147 120.678 33.2095C120.1 33.2095 119.976 33.1063 119.818 32.5492C119.751 32.3119 119.676 32.0746 119.635 31.8322C119.596 31.6129 119.483 31.5614 119.279 31.5614C118.31 31.5691 117.342 31.5639 116.374 31.5639C116.374 31.5717 116.374 31.5768 116.374 31.5846L116.374 31.5923ZM117.765 24.6515C117.727 24.6438 117.69 24.6335 117.652 24.6257C116.869 25.8638 116.084 27.0992 115.281 28.3708L118.734 28.3708C118.406 27.1044 118.086 25.8767 117.765 24.6515Z" fill="white" fill-opacity="0.2"></path>
    <path d="M65.7474 24.3265C65.6338 24.3265 65.5202 24.3265 65.4066 24.3265C62.7908 24.3265 60.1776 24.3265 57.5619 24.3265C57.4121 24.3265 57.2598 24.3265 57.1126 24.3033C56.5833 24.2079 56.3509 23.8932 56.4438 23.3593C56.5523 22.7351 56.6865 22.1161 56.8234 21.4971C56.9112 21.1024 57.1591 20.8548 57.5748 20.811C57.7556 20.7929 57.9389 20.7878 58.1222 20.7878C62.4577 20.7878 66.7932 20.7878 71.1312 20.7878C71.2707 20.7878 71.4127 20.7852 71.5496 20.811C71.9317 20.8806 72.1848 21.1618 72.1254 21.5409C71.9188 22.8796 71.6503 24.2105 70.9427 25.3918C70.7439 25.7245 70.4444 26.0159 70.1371 26.2558C69.2127 26.9754 68.2418 27.6357 67.3303 28.3682C66.0469 29.3974 65.0864 30.6689 64.5622 32.25C64.3453 32.9026 64.0251 33.127 63.3047 33.1347C62.5094 33.145 61.7115 33.1192 60.9161 33.1192C60.2267 33.1192 59.5373 33.1089 58.8504 33.1579C58.179 33.2044 57.7685 32.5828 57.9983 32.0231C58.241 31.4298 58.5096 30.8392 58.8401 30.2924C59.8962 28.5436 61.4119 27.2514 63.1058 26.1501C63.8547 25.6652 64.6138 25.1983 65.3652 24.7186C65.5073 24.6283 65.6364 24.5148 65.7732 24.4142L65.7448 24.3291L65.7474 24.3265Z" fill="white" fill-opacity="0.2"></path>
    <path d="M99.3596 24.3446C98.8535 24.3446 98.3835 24.342 97.9136 24.3446C97.268 24.3497 96.6225 24.3704 95.977 24.3626C95.7446 24.3601 95.5018 24.3291 95.2849 24.2491C94.9054 24.1099 94.7194 23.7746 94.784 23.3748C94.8821 22.7712 95.0009 22.1703 95.1223 21.5719C95.2126 21.136 95.4786 20.8703 95.9331 20.8265C96.1241 20.8084 96.3178 20.7878 96.5115 20.7878C100.568 20.7852 104.625 20.7826 108.679 20.7826C109.43 20.7826 109.768 21.1721 109.647 21.9097C109.564 22.4179 109.464 22.9234 109.363 23.4289C109.226 24.1176 108.939 24.3626 108.24 24.3704C107.669 24.3755 107.101 24.3497 106.53 24.3472C105.918 24.342 105.304 24.3549 104.692 24.3446C104.467 24.342 104.366 24.4168 104.323 24.6412C103.835 27.1586 103.336 29.6733 102.843 32.1907C102.678 33.0367 102.471 33.2172 101.611 33.2198C100.677 33.2224 99.7392 33.2276 98.8044 33.2172C98.0453 33.2069 97.769 32.8613 97.9058 32.1236C98.3345 29.8461 98.7657 27.5687 99.1944 25.2912C99.2486 24.9997 99.2976 24.7057 99.3596 24.3472L99.3596 24.3446Z" fill="white" fill-opacity="0.2"></path>
    <path d="M15.5241 14.6517C15.883 13.8805 16.1928 13.1764 16.5337 12.4877C17.3083 10.9195 18.0701 9.34615 18.8912 7.80375C19.4515 6.75399 20.1048 5.75581 20.7246 4.73958C20.8072 4.60546 20.9311 4.48939 21.0525 4.3888C21.7316 3.82652 22.3281 3.86779 22.8884 4.55387C23.1234 4.84275 23.3093 5.17548 23.4849 5.50562C24.8096 7.98945 25.8734 10.5894 26.8521 13.2254C26.9863 13.5865 27.1232 13.9476 27.2575 14.3087C27.2936 14.4041 27.322 14.5047 27.3788 14.6723C23.4126 14.4608 19.5058 14.4557 15.5189 14.6517L15.5241 14.6517Z" fill="white" fill-opacity="0.2"></path>
    <path d="M22.31 39.619C25.7004 37.3415 29.1244 35.2265 32.2746 32.6137C32.3857 33.3668 32.4941 34.0736 32.5897 34.7829C32.8272 36.5161 33.0699 38.2468 33.2843 39.9827C33.4056 40.9628 33.4779 41.9481 33.5528 42.9333C33.5709 43.1758 33.5373 43.4311 33.4805 43.6659C33.2765 44.4835 32.5019 44.9245 31.6446 44.6589C31.0843 44.4861 30.5394 44.241 30.023 43.9625C27.8953 42.8199 25.7805 41.6566 23.6682 40.4882C23.2034 40.2303 22.7671 39.9156 22.3074 39.6216L22.31 39.619Z" fill="white" fill-opacity="0.2"></path>
    <path d="M156.72 42.451C156.116 42.3814 155.501 42.3504 154.907 42.2318C154.44 42.1363 154.066 41.8526 153.931 41.3497C153.844 41.0221 153.916 40.857 154.254 40.8287C154.711 40.79 155.176 40.8106 155.636 40.8209C155.713 40.8209 155.819 40.8648 155.86 40.9241C156.17 41.3729 156.622 41.3394 157.076 41.3032C157.247 41.2903 157.422 41.2697 157.583 41.213C157.676 41.1794 157.794 41.0737 157.799 40.9937C157.805 40.9035 157.714 40.7745 157.626 40.7229C157.523 40.661 157.381 40.6558 157.255 40.6378C156.692 40.5527 156.129 40.4779 155.566 40.3902C155.439 40.3696 155.315 40.3257 155.197 40.2819C154.74 40.109 154.373 39.8666 154.352 39.3095C154.326 38.7033 154.548 38.2133 155.101 37.9631C155.514 37.7774 155.974 37.6536 156.423 37.5891C157.407 37.4447 158.396 37.4292 159.346 37.8135C159.669 37.945 159.919 38.1514 160.041 38.4867C160.149 38.791 160.025 39.0129 159.703 39.0283C159.264 39.049 158.819 39.0412 158.38 39.0283C158.282 39.0258 158.171 38.969 158.094 38.9071C157.743 38.626 157.017 38.5383 156.619 38.7601C156.539 38.8065 156.495 38.92 156.436 39.0025C156.519 39.0593 156.596 39.1521 156.684 39.1676C157.182 39.2424 157.686 39.2966 158.184 39.3636C158.481 39.4049 158.791 39.4204 159.07 39.5184C160.085 39.8718 160.286 41.0892 159.465 41.8243C159.034 42.2086 158.504 42.3453 157.952 42.384C157.546 42.4123 157.136 42.3891 156.728 42.3891C156.728 42.4123 156.725 42.433 156.723 42.4562L156.72 42.451Z" fill="white" fill-opacity="0.2"></path>
    <path d="M144.873 40.5295C145.033 40.9447 145.193 41.3213 145.32 41.7056C145.441 42.077 145.322 42.2344 144.935 42.2498C144.602 42.2627 144.269 42.2498 143.936 42.2524C143.69 42.255 143.528 42.1441 143.443 41.9145C143.35 41.6643 143.275 41.4038 143.156 41.164C143.107 41.066 142.965 40.9654 142.856 40.9576C142.536 40.9344 142.211 40.9396 141.891 40.9679C141.803 40.9757 141.684 41.0892 141.653 41.1794C141.581 41.3806 141.547 41.5947 141.514 41.8062C141.465 42.1209 141.268 42.2421 140.974 42.2447C140.705 42.2473 140.437 42.2524 140.168 42.2447C139.727 42.2344 139.642 42.1338 139.719 41.6927C139.869 40.8467 140.026 40.0033 140.184 39.1599C140.256 38.7807 140.339 38.4042 140.414 38.025C140.46 37.7903 140.587 37.6742 140.835 37.6742C142.126 37.6794 143.417 37.6639 144.708 37.6845C145.441 37.6949 145.932 38.0972 146.025 38.6853C146.154 39.5107 145.834 40.1374 145.136 40.4186C145.059 40.4495 144.982 40.4805 144.873 40.5217L144.873 40.5295ZM141.885 39.7995C142.492 39.7995 143.071 39.8124 143.647 39.7944C143.91 39.7866 143.946 39.5519 143.964 39.3456C143.985 39.1134 143.812 39.0464 143.631 39.0412C143.107 39.0309 142.583 39.0361 142.043 39.0361C141.989 39.2914 141.94 39.5287 141.883 39.7995L141.885 39.7995Z" fill="white" fill-opacity="0.2"></path>
    <path d="M89.2814 40.5346C89.4105 40.8828 89.5344 41.2104 89.6558 41.538C89.8546 42.0744 89.7384 42.2473 89.1626 42.2524C88.9147 42.2524 88.6668 42.2395 88.4215 42.2576C88.0884 42.2808 87.8973 42.1235 87.7992 41.8217C87.7708 41.7288 87.7321 41.6411 87.6985 41.5509C87.547 41.1519 87.2526 40.9516 86.8154 40.9499C86.3282 40.9482 86.0364 41.1837 85.94 41.6566C85.8264 42.2112 85.7722 42.255 85.2196 42.2473C85.0053 42.2473 84.7884 42.2473 84.5741 42.2395C84.1764 42.2292 84.0731 42.1183 84.1299 41.7211C84.179 41.3806 84.2539 41.0453 84.3184 40.71C84.4863 39.846 84.6644 38.9871 84.8245 38.1204C84.8813 37.8187 85.0182 37.682 85.341 37.6845C86.5443 37.6974 87.7501 37.6897 88.9534 37.6923C89.018 37.6923 89.0825 37.6974 89.1471 37.7052C89.9527 37.7877 90.3633 38.1488 90.4408 38.8426C90.526 39.619 90.1774 40.1942 89.4621 40.4521C89.4234 40.4676 89.3847 40.4882 89.2865 40.5346L89.2814 40.5346ZM86.3428 39.8021C86.9058 39.8021 87.4738 39.815 88.0368 39.797C88.3079 39.7892 88.3285 39.5674 88.3311 39.3507C88.3337 39.1186 88.2201 39.0258 87.9954 39.0309C87.6959 39.0361 87.3964 39.0283 87.0968 39.0309C86.2938 39.0464 86.472 38.8813 86.317 39.7144C86.317 39.7247 86.3222 39.7351 86.3403 39.7995L86.3428 39.8021Z" fill="white" fill-opacity="0.2"></path>
    <path d="M116.312 40.3128C116.436 39.6628 116.547 39.1083 116.645 38.5537C116.8 37.6665 116.797 37.6665 117.706 37.6794C117.75 37.6794 117.791 37.6794 117.835 37.682C118.336 37.7026 118.468 37.8625 118.375 38.3474C118.248 39.0103 118.119 39.6731 117.99 40.336C117.894 40.8312 117.786 41.3239 117.701 41.8191C117.647 42.1363 117.466 42.2524 117.166 42.2473C116.844 42.2421 116.521 42.224 116.201 42.2473C115.795 42.2782 115.54 42.1054 115.336 41.7675C114.935 41.1072 114.512 40.465 114.039 39.7222C113.972 39.944 113.918 40.091 113.887 40.2458C113.781 40.7719 113.67 41.2955 113.585 41.8243C113.536 42.1312 113.358 42.2395 113.076 42.2421C112.828 42.2447 112.58 42.2524 112.335 42.2421C111.976 42.2292 111.863 42.1106 111.927 41.7546C112.087 40.857 112.263 39.9646 112.436 39.0696C112.503 38.7214 112.58 38.3784 112.65 38.0302C112.694 37.8083 112.826 37.6923 113.05 37.6897C113.502 37.6845 113.954 37.6613 114.403 37.7C114.563 37.7129 114.762 37.8522 114.855 37.9915C115.341 38.7214 115.795 39.472 116.319 40.3076L116.312 40.3128Z" fill="white" fill-opacity="0.2"></path>
    <path d="M128.487 39.423C129.117 39.423 129.726 39.423 130.335 39.423C130.529 39.423 130.723 39.4152 130.916 39.4307C131.345 39.4694 131.448 39.5803 131.438 39.9594C131.428 40.3334 131.268 40.4959 130.87 40.4985C130.095 40.5063 129.321 40.4985 128.549 40.4985C128.293 40.4985 128.05 40.839 128.169 41.0685C128.203 41.133 128.345 41.1665 128.438 41.1665C129.202 41.1717 129.964 41.1536 130.728 41.1743C130.922 41.1794 131.242 41.2723 131.273 41.3858C131.337 41.6231 131.257 41.9068 131.208 42.1647C131.2 42.2086 131.048 42.2498 130.96 42.2498C129.499 42.255 128.035 42.255 126.573 42.2498C126.245 42.2498 126.139 42.1286 126.201 41.7701C126.325 41.0531 126.48 40.3386 126.622 39.6241C126.726 39.098 126.831 38.5718 126.932 38.0456C126.979 37.7903 127.126 37.6871 127.379 37.6897C128.701 37.6949 130.023 37.6871 131.348 37.7052C131.528 37.7078 131.833 37.8058 131.861 37.9141C131.921 38.1385 131.867 38.417 131.784 38.644C131.748 38.7395 131.521 38.8091 131.376 38.8117C130.591 38.822 129.806 38.8117 129.021 38.8014C128.543 38.7962 128.487 38.8504 128.487 39.4204L128.487 39.423Z" fill="white" fill-opacity="0.2"></path>
    <path d="M58.9563 37.6897C59.483 37.6897 60.0098 37.6716 60.5366 37.6974C60.8206 37.7103 61.1072 37.7774 61.3861 37.8522C62.0007 38.0173 62.2873 38.4351 62.1969 39.2269C62.0807 40.2509 61.6624 40.7513 60.4126 40.8931C59.6999 40.9731 58.9744 40.9525 58.2565 40.9447C57.9931 40.9421 57.8924 41.035 57.8589 41.2723C57.8356 41.4528 57.7943 41.6308 57.7607 41.8114C57.7039 42.126 57.5283 42.2756 57.2004 42.2524C56.9551 42.2369 56.7072 42.2447 56.4593 42.2395C56.0126 42.2292 55.9016 42.1054 55.9816 41.6618C56.1107 40.955 56.2553 40.2509 56.3922 39.5468C56.4877 39.0515 56.591 38.5589 56.6814 38.0611C56.7304 37.7903 56.8828 37.6845 57.1488 37.6871C57.7504 37.6923 58.3521 37.6871 58.9563 37.6871L58.9563 37.6897ZM58.1713 39.7454C58.7549 39.7454 59.2765 39.7531 59.7981 39.7428C60.1338 39.7351 60.1673 39.4874 60.1854 39.2244C60.2061 38.9381 60.0046 38.9148 59.8084 38.9071C59.3798 38.8942 58.9511 38.8891 58.5251 38.8994C58.445 38.8994 58.3211 38.9793 58.3004 39.049C58.2384 39.2605 58.2152 39.4823 58.1713 39.7428L58.1713 39.7454Z" fill="white" fill-opacity="0.2"></path>
    <path d="M74.705 42.2421C74.5759 42.2421 74.4468 42.2473 74.3176 42.2421C74.0646 42.2318 73.8993 42.1286 73.8425 41.8552C73.8245 41.7701 73.685 41.6514 73.5972 41.6489C72.9413 41.6385 72.2855 41.6437 71.6296 41.6669C71.5289 41.6695 71.3946 41.7649 71.3404 41.8578C71.1674 42.1467 70.935 42.2808 70.5942 42.2576C70.3256 42.2395 70.0571 42.2602 69.7885 42.2498C69.4735 42.2369 69.365 42.0822 69.4632 41.7804C69.4993 41.6695 69.5613 41.5663 69.6258 41.4683C70.3721 40.3412 71.1261 39.2166 71.8672 38.0843C72.0505 37.8058 72.2881 37.6742 72.6186 37.6794C73.1247 37.6871 73.6308 37.6897 74.1343 37.6845C74.3874 37.6845 74.5346 37.7929 74.6043 38.0353C74.9503 39.2295 75.304 40.4237 75.6423 41.6179C75.7508 42.0022 75.6423 42.1621 75.2472 42.2189C75.0665 42.2447 74.8831 42.2395 74.6998 42.2473C74.6998 42.2473 74.6998 42.2421 74.6998 42.2395L74.705 42.2421ZM73.1195 39.0232C72.7838 39.5622 72.4972 40.0214 72.1822 40.5243L73.5146 40.5243C73.3855 40.0317 73.2641 39.5751 73.1195 39.0232Z" fill="white" fill-opacity="0.2"></path>
    <path d="M100.475 39.0309C100.062 39.0309 99.6875 39.0335 99.3131 39.0309C98.9284 39.0258 98.8148 38.902 98.8303 38.5202C98.8328 38.4557 98.8354 38.3913 98.8432 38.3268C98.9206 37.7568 99.0033 37.6845 99.5868 37.6845C100.909 37.6845 102.231 37.6794 103.553 37.6845C103.791 37.6845 104.139 37.6252 104.173 37.9347C104.206 38.2546 104.095 38.5976 104.005 38.9174C103.987 38.9819 103.78 39.0206 103.659 39.0258C103.295 39.0387 102.928 39.0387 102.564 39.0258C102.373 39.0206 102.285 39.0644 102.246 39.2785C102.094 40.1219 101.908 40.9602 101.751 41.8036C101.696 42.1002 101.539 42.2369 101.252 42.2395C100.963 42.2421 100.671 42.2576 100.382 42.2344C99.9948 42.206 99.9277 42.1312 99.9897 41.7469C100.098 41.0685 100.238 40.3979 100.361 39.7222C100.403 39.5029 100.436 39.2837 100.478 39.0283L100.475 39.0309Z" fill="white" fill-opacity="0.2"></path>
  </g>
  <defs>
    <clipPath id="clip0_1206_49638">
      <rect width="163" height="48" fill="white"></rect>
    </clipPath>
  </defs>
</svg>
