<?xml version="1.0" encoding="UTF-8"?>
<svg xmlns="http://www.w3.org/2000/svg" width="58" height="48" viewBox="0 0 58 48" fill="none">
  <g clip-path="url(#clip0_1206_49615)">
    <path d="M50.5972 8C50.2756 8.09479 49.9596 8.19516 49.7268 8.26765C53.6464 8.60779 56.2189 10.9051 57.5716 14.485C58.9576 18.1429 58.054 21.4941 55.3873 24.4495C57.738 27.0312 58.6804 30.02 57.8766 33.4771C57.3554 35.7132 56.108 37.4696 54.3339 38.8692C50.8356 41.635 45.7794 41.4621 42.3144 38.5124C40.1744 36.6834 39.0378 34.3303 38.9048 31.5757C38.7717 28.8378 39.8473 26.4569 41.699 24.4606C38.8604 21.1986 37.9789 17.602 39.8417 13.6988C41.3442 10.5594 43.8002 8.513 47.4703 8.28996C47.2486 8.20074 46.9991 8.10037 46.7496 8.00558C48.0358 8 49.3165 8 50.5972 8ZM48.6291 21.4439C51.1516 21.5666 52.4655 19.5983 52.4046 17.6243C52.3325 15.4998 50.6526 13.788 48.5403 13.7936C46.3837 13.7936 44.6928 15.511 44.6872 17.6968C44.6872 19.8715 46.3615 21.4663 48.6346 21.4439L48.6291 21.4439ZM52.3824 31.2077C52.3824 28.9828 50.7303 27.4104 48.3629 27.3936C46.2673 27.3825 44.6872 29.0386 44.6872 31.2467C44.6872 33.2485 46.4613 35.0496 48.4295 35.0552C50.6582 35.0552 52.3824 33.3824 52.3824 31.2077Z" fill="white" fill-opacity="0.2"></path>
    <path d="M11.5892 8C11.2676 8.09479 10.946 8.18959 10.7187 8.26208C14.6772 8.56876 17.1609 10.9051 18.6412 14.4794C20.2213 18.2935 18.8463 21.5053 16.4568 24.5331C16.5733 24.6614 16.6841 24.7896 16.8061 24.9179C18.4971 26.758 19.3952 28.9884 19.312 31.414C19.2178 34.0849 18.1201 36.4659 16.0632 38.306C13.2745 40.7874 10.0424 41.5011 6.55514 40.3023C3.02357 39.0923 0.789312 36.5384 0.157289 32.8192C-0.319501 29.9921 0.262626 27.349 2.2474 25.1465C2.68538 24.6614 2.74637 24.377 2.25849 23.8138C-2.21557 18.6336 0.306978 10.3475 6.89333 8.50742C7.42001 8.36245 7.99105 8.36802 8.62862 8.28996C8.28489 8.17843 8.01323 8.08922 7.74157 8C9.02225 8 10.3029 8 11.5892 8ZM9.56557 21.4663C12.1879 21.6893 13.5739 19.3641 13.585 17.8028C13.5961 15.9236 11.761 13.7768 9.57111 13.8382C7.34794 13.8995 5.77343 15.4664 5.73462 17.7135C5.7069 19.4421 7.13172 21.6503 9.56557 21.4663ZM9.57666 27.4382C7.04302 27.2542 5.7069 29.5237 5.74571 31.1854C5.7956 33.2318 7.50872 35.0942 9.39925 35.0775C11.7444 35.0552 13.5351 33.3043 13.524 31.0348C13.5129 29.0274 11.7555 27.4215 9.57666 27.4382Z" fill="white" fill-opacity="0.2"></path>
    <path d="M31.2318 8C31.0821 8.08364 30.9324 8.16171 30.7938 8.23977C34.78 9.13195 37.4578 11.5018 38.3725 15.4441C39.0933 18.5444 38.5943 21.5555 36.2658 23.9978C35.9276 24.3547 35.983 24.5944 36.2769 24.9179C37.3524 26.1111 38.1286 27.4829 38.4391 29.0609C39.814 36.0087 34.4085 40.832 29.2525 40.8097C24.7009 40.7874 20.7258 37.9436 19.8387 33.5496C19.2289 30.5274 19.4617 27.4661 21.7514 24.9848C21.9067 24.8175 22.0453 24.639 22.1451 24.5164C21.5629 23.6186 20.9531 22.7934 20.4597 21.9068C19.8387 20.7915 19.5504 19.5815 19.6669 18.2823C19.7556 17.2842 19.6003 16.2359 19.8332 15.2824C20.6648 11.92 22.8602 9.73416 26.0869 8.56318C26.4251 8.44051 26.7965 8.38475 27.1569 8.35687C27.4951 8.32899 27.8388 8.37917 28.1992 8.32341C27.8832 8.22304 27.5671 8.11152 27.2456 8C28.5706 8 29.9012 8 31.2262 8L31.2318 8ZM29.0141 13.8605C26.9573 13.8047 25.2774 15.4218 25.2109 17.5295C25.1388 19.7655 26.6967 21.3882 28.9698 21.4439C31.1763 21.4997 32.9615 19.9161 33.0059 17.8585C33.0558 15.6671 31.3094 13.9218 29.0141 13.8605ZM29.1361 27.4382C26.8686 27.2264 25.1943 29.3731 25.1998 31.1296C25.2054 33.1872 26.9407 35.0329 28.9864 35.0552C31.132 35.0831 32.956 33.3712 32.9671 31.2634C32.9782 29.5014 31.5145 27.3323 29.1417 27.4382L29.1361 27.4382Z" fill="white" fill-opacity="0.2"></path>
  </g>
  <defs>
    <clipPath id="clip0_1206_49615">
      <rect width="58" height="48" fill="white"></rect>
    </clipPath>
  </defs>
</svg>
