<?xml version="1.0" encoding="UTF-8"?>
<svg xmlns="http://www.w3.org/2000/svg" width="80" height="48" viewBox="0 0 80 48" fill="none">
  <g clip-path="url(#clip0_1206_49619)">
    <path d="M66.9351 14C68.9587 14.1407 71.0366 14.0345 72.9944 14.4652C78.9849 15.7803 81.89 23.3323 78.6615 28.5699C76.6179 31.8864 73.6412 33.2762 69.9519 33.3164C67.0696 33.348 64.1617 33.3337 61.3052 33.0092C57.3411 32.5584 54.2785 29.0494 53.6746 25.0753C52.6814 18.5599 57.9765 13.9282 63.3602 14.1292C64.5481 14.1723 65.7387 14.135 66.9294 14.135L66.938 14.0029L66.9351 14ZM66.7949 20.7221C65.6557 20.7221 64.5166 20.7221 63.3774 20.7221C61.4369 20.7279 59.9829 22.0229 60.0029 23.7314C60.0229 25.3854 61.5628 26.7379 63.4604 26.7436C65.6901 26.7522 67.9226 26.7465 70.1522 26.7407C72.004 26.735 73.4037 25.4514 73.4122 23.7659C73.4237 22.0545 72.047 20.7451 70.2123 20.7279C69.0732 20.7164 67.934 20.7279 66.7949 20.7221Z" fill="white" fill-opacity="0.2"></path>
    <path d="M6.34547 33.2705L0.0114469 33.2705C0.0114469 32.3602 0.0114469 31.516 0.0114469 30.6718C0.00858467 25.8994 0.0028622 21.127 5.24452e-09 16.3546C1.8036e-09 14.8098 0.5753 14.178 2.11516 14.1378C3.53766 14.1005 4.96017 14.1292 6.51148 14.1292L6.51148 22.1808C8.09713 20.8714 9.45667 19.7717 10.7933 18.646C12.1643 17.4917 13.4322 16.1967 14.8977 15.183C15.7277 14.6088 16.8497 14.2441 17.8629 14.1866C20.3072 14.0459 22.7658 14.1407 25.6853 14.1407C22.3794 16.9203 19.4142 19.4156 16.3488 21.9942C19.44 25.6955 22.5197 29.3882 25.8055 33.325C22.9347 33.325 20.353 33.5662 17.8572 33.2131C16.7667 33.0609 15.7449 31.7888 14.8748 30.8527C13.6011 29.4773 12.4934 27.9496 11.1912 26.3301C9.77723 27.5333 8.21734 28.5641 7.08677 29.9482C6.4714 30.7005 6.58876 32.053 6.34833 33.2734L6.34547 33.2705Z" fill="white" fill-opacity="0.2"></path>
    <path d="M36.3412 20.6877L26.9217 20.6877L26.9217 14.2268L52.4811 14.2268L52.4811 20.6475L42.8985 20.6475L42.8985 33.2561L36.3412 33.2561L36.3412 20.6877Z" fill="white" fill-opacity="0.2"></path>
  </g>
  <defs>
    <clipPath id="clip0_1206_49619">
      <rect width="80" height="48" fill="white"></rect>
    </clipPath>
  </defs>
</svg>
