<?xml version="1.0" encoding="UTF-8"?>
<svg xmlns="http://www.w3.org/2000/svg" width="189" height="48" viewBox="0 0 189 48" fill="none">
  <g clip-path="url(#clip0_1206_49617)">
    <path d="M145.904 38.5141C145.89 36.5856 145.865 34.6542 145.863 32.7257C145.857 27.3096 145.863 21.8936 145.86 16.4803L145.86 16.2108L150.049 16.2108L150.049 17.7808C150.077 17.7975 150.105 17.817 150.132 17.8336C150.182 17.7586 150.227 17.6752 150.288 17.6058C151.596 16.1191 153.28 15.5494 155.219 15.655C158.347 15.8245 160.664 17.8531 161.586 20.7126C162.322 22.9996 162.28 25.2755 161.211 27.4625C160.172 29.5828 158.5 30.9694 156.141 31.4002C154.135 31.767 152.263 31.4474 150.685 30.0413C150.582 29.9496 150.496 29.8356 150.366 29.6911C150.346 29.7967 150.33 29.844 150.33 29.8912C150.33 32.634 150.33 35.3767 150.33 38.1195C150.33 38.2501 150.335 38.3807 150.341 38.5141L145.904 38.5141ZM153.852 27.368C155.897 27.3736 157.558 25.7257 157.602 23.7249C157.65 21.5601 155.98 19.79 153.841 19.8011C151.78 19.8122 150.141 21.4712 150.138 23.5832C150.138 25.7173 151.749 27.3624 153.852 27.368Z" fill="white" fill-opacity="0.2"></path>
    <path d="M188.51 20.6959C187.39 20.7209 186.268 20.7431 185.118 20.7681C185.118 20.8571 185.118 20.946 185.118 21.0377C185.118 22.4049 185.157 23.7721 185.107 25.1393C185.057 26.5038 185.707 27.4013 186.84 28.0377C186.949 28.0988 187.063 28.1516 187.176 28.2072C187.276 28.2572 187.304 28.3156 187.246 28.4295C186.704 29.4772 186.171 30.5276 185.635 31.578C185.557 31.7281 185.476 31.7642 185.301 31.6975C184.557 31.4168 183.843 31.0806 183.212 30.5887C181.837 29.5161 181.154 28.0655 181.079 26.3732C180.993 24.4224 181.026 22.4688 181.021 20.5153C181.012 18.3033 181.021 16.0941 181.021 13.8821C181.021 13.5736 181.021 13.5819 181.346 13.5819C182.562 13.5819 183.779 13.5708 184.996 13.5681C185.026 13.5681 185.057 13.5708 185.11 13.5764L185.11 17.3946C185.215 17.4001 185.296 17.4085 185.379 17.4112C186.299 17.4168 187.215 17.4196 188.135 17.4251C188.26 17.4251 188.385 17.4446 188.51 17.4557L188.51 20.6959Z" fill="white" fill-opacity="0.2"></path>
    <path d="M52.3285 28.9436C52.2591 29.0464 52.1924 29.1493 52.123 29.2493C51.3785 30.2969 50.3145 30.8249 49.0755 30.9472C46.2253 31.2251 43.8891 30.2497 42.2778 27.8626C41.5 26.7122 41.0444 25.3922 40.9639 23.9805C40.8583 22.1076 41.2278 20.3458 42.2612 18.7535C44.0585 15.9829 47.2948 15.0214 49.9867 15.7272C50.9034 15.9662 51.6701 16.4386 52.248 17.1973C52.2841 17.2445 52.3257 17.2862 52.3952 17.364C52.3952 16.9472 52.4035 16.5776 52.3924 16.2052C52.3869 16.0385 52.4313 15.969 52.6119 15.969C53.9147 15.9773 55.2204 15.9773 56.5233 15.9801C56.5927 15.9801 56.6622 15.9912 56.751 16.0024C56.751 16.1552 56.751 16.2941 56.751 16.4331C56.751 20.7626 56.751 25.0893 56.7455 29.4188C56.7455 30.611 56.6649 31.8087 56.1982 32.9147C55.162 35.3712 53.4036 37.0357 50.7145 37.5721C49.07 37.9 47.4365 37.7999 45.8309 37.297C45.6531 37.2414 45.5392 37.158 45.4753 36.969C45.0503 35.7547 44.6141 34.5431 44.1808 33.3315C44.1724 33.312 44.1724 33.287 44.1613 33.2259C44.2641 33.2426 44.353 33.2453 44.4336 33.2731C45.6947 33.6705 46.9809 33.84 48.3088 33.7872C50.4534 33.7066 52.073 32.2394 52.3063 30.1219C52.348 29.7356 52.3619 29.3466 52.3869 28.9603C52.3674 28.9547 52.348 28.9492 52.3313 28.9436L52.3285 28.9436ZM48.82 26.9373C50.4451 26.9373 51.7229 26.0536 52.1924 24.5891C52.4619 23.7554 52.448 22.9134 52.2091 22.0742C51.5757 19.8678 48.9644 18.8729 47.0087 20.0873C45.542 20.9988 44.9308 22.8773 45.5447 24.5808C46.0781 26.0675 47.2865 26.9345 48.82 26.9345L48.82 26.9373Z" fill="white" fill-opacity="0.2"></path>
    <path d="M112.713 31L108.243 31L108.243 29.4272C108.193 29.4605 108.168 29.4688 108.16 29.4855C107.496 30.6137 106.429 31.1334 105.21 31.3807C101.476 32.131 97.9649 30.0774 96.7982 26.3954C95.8759 23.4859 96.2398 20.7181 98.1983 18.3061C99.8289 16.2969 102.012 15.4382 104.599 15.6939C105.835 15.8162 106.938 16.2775 107.796 17.2167C107.943 17.3779 108.068 17.5558 108.227 17.7586C108.241 17.6697 108.255 17.6113 108.257 17.5558C108.257 17.1806 108.274 16.8055 108.246 16.4303C108.23 16.1858 108.327 16.1441 108.541 16.1469C109.327 16.158 110.11 16.1524 110.896 16.1524C111.399 16.1524 111.902 16.1524 112.405 16.1552C112.505 16.1552 112.605 16.1719 112.716 16.183L112.716 31.0028L112.713 31ZM104.518 27.3652C106.607 27.3652 108.243 25.709 108.246 23.5859C108.249 21.4879 106.566 19.8066 104.457 19.8011C102.424 19.7955 100.81 21.4795 100.807 23.6026C100.807 25.7062 102.437 27.3624 104.521 27.3652L104.518 27.3652Z" fill="white" fill-opacity="0.2"></path>
    <path d="M40.7583 30.5804C40.4166 30.4998 40.0638 30.4192 39.7138 30.3358C37.4497 29.7995 35.1857 29.266 32.9244 28.7213C32.7078 28.6685 32.5855 28.7713 32.4494 28.8936C31.066 30.1441 29.6826 31.3918 28.2991 32.6423C27.7769 33.1147 27.2574 33.5927 26.7268 34.0568C26.6296 34.1429 26.4907 34.1818 26.3684 34.243C26.3157 34.1179 26.2295 33.9984 26.2184 33.8706C26.1406 33.0536 26.0823 32.2366 26.0156 31.4196C25.899 29.9885 25.7823 28.5546 25.6656 27.1235C25.6434 26.8428 25.5878 26.5621 25.6017 26.2842C25.6156 25.9619 25.4684 25.7951 25.2017 25.6451C23.8155 24.8642 22.4404 24.0695 21.0597 23.2775C20.243 22.8106 19.4291 22.3438 18.6124 21.8769C18.5846 21.8602 18.554 21.8491 18.5318 21.8297C18.4512 21.7519 18.3735 21.6685 18.2929 21.5907C18.3818 21.5101 18.454 21.3962 18.5596 21.3489C19.3291 21.0155 20.1041 20.6959 20.8764 20.3735C22.5098 19.6927 24.1433 19.0119 25.7795 18.3366C25.9656 18.2616 26.0656 18.1504 26.1045 17.9504C26.6212 15.4771 27.1435 13.0039 27.6658 10.5307C27.688 10.4307 27.7074 10.3306 27.7408 10.2362C27.8352 9.95272 27.9463 9.92493 28.1436 10.15C28.5853 10.6474 29.0242 11.1476 29.4575 11.6534C30.741 13.1401 32.0244 14.6296 33.3022 16.1218C33.4245 16.2636 33.5523 16.3108 33.73 16.2914C34.8218 16.1691 35.9135 16.0552 37.0053 15.9384C38.5276 15.7773 40.0471 15.6133 41.5695 15.4577C41.6667 15.4466 41.825 15.4799 41.8528 15.5383C41.8917 15.6189 41.8612 15.7634 41.8084 15.8523C40.4777 18.0448 39.1443 20.2318 37.7998 22.416C37.6386 22.6772 37.622 22.8829 37.7498 23.1663C38.7859 25.4395 39.8055 27.7181 40.8277 29.9968C40.875 30.1024 40.925 30.2108 40.9528 30.3247C40.9917 30.472 40.9278 30.5665 40.7583 30.5832L40.7583 30.5804ZM24.0683 21.8102C24.2183 21.9075 24.3155 21.9797 24.4211 22.0381C25.5823 22.705 26.7462 23.3664 27.9047 24.0417C28.0074 24.1028 28.113 24.2473 28.1213 24.3612C28.2436 25.6896 28.3464 27.0206 28.4575 28.3517C28.4686 28.4684 28.5103 28.5851 28.538 28.7019C28.6464 28.6352 28.7686 28.5851 28.8631 28.5018C29.8548 27.6153 30.841 26.7205 31.8383 25.8368C31.9216 25.7618 32.0827 25.709 32.1883 25.734C33.3939 26.0091 34.5968 26.3009 35.8024 26.5871C36.0274 26.6399 36.2524 26.6788 36.5386 26.7372C36.4663 26.5427 36.4247 26.4093 36.3663 26.2842C35.833 25.0949 35.3024 23.9055 34.7607 22.7189C34.6801 22.5411 34.6857 22.4077 34.7885 22.241C35.4996 21.0905 36.2024 19.9373 36.9053 18.7812C36.9525 18.7034 36.9747 18.6089 37.0192 18.4922C36.8803 18.4922 36.7969 18.4839 36.7108 18.4922C35.369 18.634 34.0273 18.7729 32.6883 18.9341C32.4605 18.9619 32.3411 18.8757 32.2105 18.7257C31.341 17.7086 30.4659 16.6971 29.5937 15.68C29.5325 15.6105 29.4937 15.5244 29.4436 15.4438C29.4131 15.4605 29.3825 15.4799 29.352 15.4966C29.3103 15.6272 29.2603 15.7578 29.2325 15.894C28.9603 17.1834 28.6936 18.4756 28.4102 19.7622C28.3852 19.8789 28.2769 20.0206 28.1713 20.0679C26.9685 20.582 25.7601 21.0794 24.5544 21.5824C24.4072 21.6435 24.2627 21.7185 24.0683 21.8102Z" fill="white" fill-opacity="0.2"></path>
    <path d="M0.00833393 30.8249L0.0083339 16.2108L4.10028 16.2108L4.10028 17.7253C5.12534 16.1246 6.65323 15.655 8.42279 15.7134C10.2618 15.7745 11.523 16.7499 12.4231 18.3061C13.812 16.1941 15.7733 15.4188 18.2123 15.7912C19.7097 16.019 20.8903 16.7582 21.6792 18.1088C21.5903 18.156 21.5181 18.2005 21.4431 18.2338C20.0402 18.8174 18.6401 19.4037 17.2345 19.9789C17.1262 20.0234 16.9761 20.0151 16.8595 19.9789C16.0455 19.7177 15.2427 19.7233 14.4982 20.1623C13.8676 20.5347 13.6231 21.1655 13.5259 21.8519C13.4759 22.2048 13.462 22.5689 13.4592 22.9246C13.4537 25.4728 13.4537 28.0183 13.4592 30.5665C13.4592 30.7666 13.4203 30.8333 13.2009 30.8305C11.9841 30.8166 10.7674 30.8222 9.54786 30.8222C9.3923 30.8222 9.23396 30.8222 9.0395 30.8222C9.0395 30.7166 9.0395 30.6165 9.0395 30.5193C9.0395 27.8154 9.04783 25.1115 9.03116 22.4077C9.03116 22.0075 8.95338 21.5963 8.83671 21.2128C8.56169 20.3041 7.90331 19.84 6.94491 19.8122C5.56704 19.7733 4.70032 20.4847 4.4753 21.8686C4.40863 22.291 4.38641 22.7245 4.38363 23.1524C4.37529 25.6229 4.37529 28.0905 4.38363 30.5609C4.38363 30.7805 4.32529 30.8305 4.10583 30.8277C2.83352 30.8138 1.56122 30.8194 0.288908 30.8194C0.197236 30.8194 0.105563 30.8194 4.63719e-08 30.8194L0.00833393 30.8249Z" fill="white" fill-opacity="0.2"></path>
    <path d="M171.562 31.4641C169.528 31.4391 167.711 30.8638 166.183 29.5411C164.417 28.0155 163.553 26.048 163.511 23.7388C163.464 21.185 164.381 19.0286 166.397 17.4057C168.059 16.069 169.998 15.5299 172.114 15.68C174.656 15.8579 176.726 16.9361 178.195 19.0313C179.407 20.757 179.768 22.6967 179.476 24.7642C179.198 26.7233 178.312 28.3628 176.781 29.6328C175.267 30.8888 173.492 31.4391 171.564 31.4641L171.562 31.4641ZM167.964 23.4025C167.967 24.1306 168.089 24.6975 168.345 25.2366C169.423 27.5153 172.367 28.021 174.076 26.2148C175.367 24.8475 175.459 22.63 174.287 21.16C173.203 19.8039 171.378 19.3982 169.895 20.2346C168.62 20.9543 168.034 22.102 167.967 23.3997L167.964 23.4025Z" fill="white" fill-opacity="0.2"></path>
    <path d="M144.224 31.1751C143.818 31.1751 143.451 31.1751 143.085 31.1751C142.048 31.1751 141.012 31.1751 139.973 31.1862C139.787 31.1862 139.676 31.125 139.573 30.9694C138.312 29.0548 137.045 27.1485 135.779 25.2366C135.734 25.1699 135.684 25.106 135.637 25.0421C135.617 25.0504 135.601 25.056 135.581 25.0643C135.581 25.3088 135.581 25.5562 135.581 25.8007C135.581 27.4875 135.581 29.1771 135.581 30.8638C135.581 31.1917 135.581 31.1778 135.265 31.1751C133.97 31.1751 132.673 31.1751 131.378 31.189C131.159 31.189 131.114 31.1278 131.114 30.9277C131.117 25.231 131.117 19.5343 131.114 13.8376C131.114 13.6292 131.173 13.5819 131.381 13.5847C132.748 13.5931 134.115 13.5847 135.481 13.5792C135.504 13.5792 135.526 13.5875 135.584 13.6014L135.584 20.9099C135.662 20.8626 135.698 20.8487 135.717 20.8237C136.965 19.3176 138.212 17.8086 139.462 16.3025C139.509 16.2469 139.607 16.1997 139.679 16.1997C141.235 16.1941 142.787 16.1941 144.396 16.1941C144.326 16.2886 144.285 16.3581 144.235 16.4164C142.465 18.5089 140.698 20.6014 138.923 22.6911C138.829 22.8023 138.826 22.8745 138.904 22.994C140.648 25.6479 142.387 28.3045 144.126 30.9583C144.165 31.0167 144.187 31.0889 144.226 31.1695L144.224 31.1751Z" fill="white" fill-opacity="0.2"></path>
    <path d="M79.8582 21.6324C79.7331 21.6324 79.6498 21.6324 79.5637 21.6324C78.2692 21.6324 76.9719 21.6268 75.6773 21.6379C75.4412 21.6379 75.319 21.574 75.2078 21.36C74.155 19.3148 71.5659 19.1342 70.1964 20.0651C69.2908 20.6792 68.7991 21.5518 68.638 22.6078C68.4491 23.8555 68.688 25.0059 69.5463 25.973C70.1575 26.6622 70.9437 27.0123 71.8632 27.0707C73.3716 27.1651 74.5134 26.5788 75.269 25.2616C75.3134 25.181 75.4523 25.1088 75.5468 25.1088C76.9218 25.1004 78.2942 25.1088 79.6693 25.1004C79.9554 25.1004 79.8582 25.2644 79.8193 25.3922C79.1192 27.7848 77.6608 29.5411 75.3551 30.5554C72.1715 31.9532 68.4685 31.2029 66.1989 28.7074C64.6877 27.0456 63.9904 25.0726 64.0988 22.844C64.2738 19.2842 66.7323 16.3469 70.2325 15.5716C74.0772 14.7241 78.4636 16.6748 79.7331 21.1322C79.7776 21.285 79.8109 21.4434 79.8554 21.6324L79.8582 21.6324Z" fill="white" fill-opacity="0.2"></path>
    <path d="M129.909 21.8908C128.425 21.8908 127.003 21.8908 125.583 21.8936C125.403 21.8936 125.345 21.788 125.278 21.6574C124.211 19.4954 121.311 19.3231 119.919 20.5708C118.977 21.4128 118.6 22.4883 118.636 23.7193C118.669 24.8448 119.066 25.8146 119.944 26.5705C121.272 27.7154 124.028 27.7737 125.247 25.6312C125.361 25.4339 125.486 25.3672 125.708 25.37C127.067 25.3783 128.425 25.3728 129.784 25.3728C129.823 25.3728 129.859 25.3783 129.9 25.3811C129.398 28.1655 126.672 31.4363 122.136 31.5058C117.605 31.578 113.955 27.7904 114.152 23.1913C114.349 18.6034 118.264 15.1965 122.867 15.6856C125.089 15.9218 126.95 16.8555 128.364 18.6034C129.142 19.5649 129.645 20.657 129.912 21.8908L129.909 21.8908Z" fill="white" fill-opacity="0.2"></path>
    <path d="M88.1587 31.9587C88.3476 31.8587 88.5393 31.7698 88.7171 31.6614C89.4838 31.1834 90.1644 30.6332 90.4005 29.705C90.445 29.5328 90.4783 29.3521 90.4783 29.1743C90.4839 26.0953 90.4811 23.0163 90.4811 19.9373C90.4811 19.89 90.4811 19.8428 90.4811 19.7705L87.1031 19.7705L87.1031 16.1941C87.1781 16.1941 87.2448 16.1941 87.3142 16.1941C89.7505 16.1941 92.184 16.1969 94.6203 16.1885C94.8536 16.1885 94.9036 16.2608 94.9036 16.4775C94.8981 20.6209 94.9036 24.7614 94.8981 28.9047C94.8981 29.9663 94.7703 31.0083 94.373 32.0032C93.7591 33.5482 92.6285 34.5875 91.1395 35.2739C90.8561 35.4045 90.5589 35.5074 90.27 35.6324C90.1227 35.6963 90.0422 35.6602 89.9699 35.5185C89.3699 34.3347 88.7671 33.1536 88.1587 31.9587Z" fill="white" fill-opacity="0.2"></path>
    <path d="M58.1928 23.3331C58.1928 20.9349 58.1928 18.5367 58.19 16.1357C58.19 15.9551 58.2317 15.8968 58.4262 15.8995C59.7457 15.9107 61.0652 15.9107 62.3848 15.8995C62.607 15.8995 62.6653 15.9607 62.6653 16.1719C62.6598 20.8515 62.6598 25.5339 62.6598 30.2136C62.6598 30.7666 62.6598 30.7666 62.0986 30.7666C60.8735 30.7666 59.6485 30.7638 58.4234 30.7721C58.2261 30.7721 58.1928 30.7054 58.1928 30.5276C58.1984 28.1294 58.1956 25.7312 58.1956 23.3303L58.1928 23.3331Z" fill="white" fill-opacity="0.2"></path>
    <path d="M18.0818 23.7277C19.518 24.5474 20.9181 25.3477 22.3154 26.1536C22.3876 26.1953 22.4543 26.312 22.4543 26.3954C22.4598 27.8321 22.4543 29.2688 22.4543 30.7054C22.4543 30.736 22.4432 30.7666 22.4348 30.811L18.0846 30.811L18.0846 23.7277L18.0818 23.7277Z" fill="white" fill-opacity="0.2"></path>
    <path d="M62.6403 14.3072L58.2206 14.3072L58.2206 10.9531L62.6403 10.9531L62.6403 14.3072Z" fill="white" fill-opacity="0.2"></path>
  </g>
  <defs>
    <clipPath id="clip0_1206_49617">
      <rect width="189" height="48" fill="white"></rect>
    </clipPath>
  </defs>
</svg>
