<?xml version="1.0" encoding="UTF-8"?>
<svg xmlns="http://www.w3.org/2000/svg" width="103" height="48" viewBox="0 0 103 48" fill="none">
  <g clip-path="url(#clip0_1206_49650)">
    <path d="M5.73279 47.8875C2.96601 48.2161 0.0349585 45.3671 0.0263123 42.3237C-0.00394931 33.8634 0.0133429 25.4031 0.0133429 16.9385C0.0133429 13.065 -0.029888 9.19155 0.0392814 5.32239C0.0868353 2.60317 3.03518 -0.129024 5.68956 0.0482222C5.90139 1.62615 6.47203 3.17382 4.40128 4.22433C3.80469 4.52694 3.42426 5.80225 3.41994 6.63661C3.35509 18.1792 3.35941 29.7262 3.41994 41.2689C3.41994 42.1119 3.76578 43.4218 4.34508 43.7028C6.42448 44.7187 5.89274 46.2966 5.74143 47.8832L5.73279 47.8875Z" fill="white" fill-opacity="0.2"></path>
    <path d="M96.9458 0.000381059C99.557 -0.0385267 102.886 2.90982 102.894 5.27887C102.938 17.7596 102.938 30.2404 102.894 42.7211C102.886 45.0815 99.5527 48.0385 97.0669 47.9996C96.7297 46.3352 96.2628 44.7573 98.3768 43.6809C98.9215 43.4042 99.2501 42.2067 99.2544 41.4285C99.3106 29.8081 99.3106 18.1876 99.2544 6.56715C99.2544 5.789 98.9215 4.56989 98.3811 4.31482C96.306 3.33348 96.7816 1.75123 96.9502 0.000381059L96.9458 0.000381059Z" fill="white" fill-opacity="0.2"></path>
    <path d="M18.6118 10.1639C22.5285 7.609 24.6811 7.87283 27.2923 10.5531C28.9872 9.51575 29.6357 8.65113 32.9469 8.62937C35.4718 8.86729 37.5077 10.0257 37.6936 12.5807C37.9314 15.8403 37.7498 19.1345 37.7498 22.5497L34.8533 22.5497C34.8533 20.1936 34.862 17.924 34.8533 15.6501C34.8361 12.879 33.8936 11.6037 31.8401 11.5345C29.7694 11.461 28.0747 11.8934 28.0747 15.6501C27.984 17.8635 28.0574 20.0812 28.0574 22.4892L25.0615 22.4892C25.0615 20.1374 25.0702 17.8635 25.0615 15.5852C25.0443 12.8055 24.1061 11.5691 22.0138 11.5302C20.0165 11.4913 18.7285 13.1471 18.6118 15.5681C18.6118 17.9458 18.6118 20.0338 18.6118 22.485L15.4902 22.5151L15.4902 8.65096C16.4503 8.65096 18.6118 8.65086 18.6118 8.65086C18.6118 8.65086 18.6032 9.43819 18.6118 10.1639Z" fill="white" fill-opacity="0.2"></path>
    <path d="M52.7383 9.71025C52.7641 9.29961 52.7641 8.43499 52.7641 8.21884C53.6287 8.21884 55.5741 8.21875 56.547 8.21875L56.547 22.4936C55.5741 22.485 54.2771 22.485 53.6287 22.485C53.6287 22.2689 53.6287 21.8366 53.6287 21.1881C49.9281 23.4102 46.284 23.1464 44.157 20.6304C41.9393 18.0063 41.9306 13.2336 44.1397 10.67C46.3315 8.128 49.7338 7.88591 52.734 9.71025L52.7383 9.71025ZM53.6851 15.6156C53.6808 13.2076 51.8694 11.2579 49.6214 11.2449C47.3042 11.232 45.4669 13.2811 45.5274 15.8145C45.588 18.2959 47.3474 20.064 49.7079 20.0078C52.0423 19.956 53.6894 18.136 53.6851 15.6113L53.6851 15.6156Z" fill="white" fill-opacity="0.2"></path>
    <path d="M76.58 17.8152C79.1695 20.5863 80.5745 20.5949 84.2102 18.3815C85.1872 19.242 85.4033 19.4581 85.8356 19.8904C85.7481 20.2375 85.1435 20.7517 84.4653 21.278C81.772 23.3704 77.5267 23.1672 75.1922 20.837C72.6719 18.321 72.499 13.6391 74.8248 10.7902C76.7875 8.38222 80.648 7.78131 83.3931 9.51055C83.9854 9.88233 84.5474 10.3838 84.9624 10.9415C86.83 13.4662 86.3804 14.7545 83.4364 15.6493C81.2359 16.3151 79.0484 17.0327 76.58 17.8152ZM76.2298 15.2473C78.7112 14.4864 80.8209 13.838 83.0386 13.1592C82.1827 11.2355 80.7474 11.0798 79.2127 11.3133C77.3062 11.6029 76.5281 12.9301 76.2298 15.2473Z" fill="white" fill-opacity="0.2"></path>
    <path d="M66.4108 9.26922C67.5435 9.26922 69.407 9.29952 70.0554 9.29952C70.0554 9.73183 70.0597 9.99986 70.0554 10.3803C70.0511 10.8126 70.0554 11.4611 70.0554 11.6772C68.8429 11.6772 66.8131 11.6772 66.3808 11.6772C66.3808 12.758 66.3616 13.9865 66.4108 15.1616C66.4108 15.7396 66.4108 16.3072 66.4108 16.8822C66.4324 19.6749 66.774 19.9645 69.5407 19.5625C70.0554 20.7557 70.2716 21.188 70.4877 21.8365C70.2262 22.1626 69.3171 22.3803 68.4211 22.5757C65.8272 23.142 63.5922 21.6289 63.4841 18.9097C63.3546 14.9195 63.354 11.0288 63.484 6.89737C63.4841 6.42926 63.4844 6.0574 63.4841 5.62498C63.9769 5.61633 66.1646 5.62479 66.346 5.62498C66.346 6.27325 66.3807 8.23168 66.3807 9.26922L66.4108 9.26922Z" fill="white" fill-opacity="0.2"></path>
    <path d="M78.6363 33.6107C77.977 33.8162 77.3416 34.0378 76.6933 34.2114C75.0336 34.6569 73.3689 35.0812 71.7058 35.5139C71.3108 35.6166 71.2473 35.7199 71.3675 36.1196C71.5205 36.6265 71.7859 37.0676 72.1654 37.4377C73.3099 38.5548 75.812 38.935 77.0912 36.8493C77.41 36.3295 77.6737 35.7752 77.9603 35.2414C77.9875 35.2375 78.007 35.2292 78.0226 35.2336C78.7242 35.4391 78.7364 35.4419 78.5712 36.1632C78.1739 37.8961 77.0033 38.8357 75.3508 39.2488C72.6205 39.931 70.5758 37.9262 70.0772 35.8142C69.8742 34.9556 69.9504 34.1813 70.1713 33.3701C70.6364 31.6629 71.9684 30.5335 73.7539 30.2984C75.092 30.1226 76.2677 30.4151 77.2664 31.348C77.913 31.9521 78.3141 32.7069 78.6363 33.6113L78.6363 33.6107ZM77.0856 33.0011C76.7028 32.2083 76.1948 31.6886 75.4342 31.4435C74.8177 31.2442 74.1951 31.2872 73.5692 31.3932C72.3668 31.5976 71.4003 32.5048 71.1433 33.6989C71.0771 34.0082 71.0331 34.3315 71.1945 34.6608C73.1558 34.1081 75.0993 33.5605 77.0856 33.0011Z" fill="white" fill-opacity="0.2"></path>
    <path d="M59.5857 31.7713C59.6386 31.4136 59.6876 31.1325 59.7197 30.8497C59.7371 30.6943 59.812 30.658 59.959 30.6524C60.7399 30.6239 60.7585 30.6273 60.7686 31.4069C60.7939 33.406 60.8125 35.4056 60.8238 37.4047C60.8266 37.8691 60.7979 38.3341 60.763 38.7968C60.7573 38.87 60.6481 38.9874 60.576 38.9963C59.7636 39.0953 59.7287 39.0629 59.6268 38.2625C59.6155 38.1754 59.5907 38.0899 59.5598 37.944C59.303 38.1239 59.0862 38.2653 58.8813 38.4213C58.1257 38.9958 57.2862 39.3669 56.3256 39.3836C54.1545 39.4216 52.5471 38.2257 51.8832 36.1048C51.0685 33.5015 52.9192 30.6111 55.6303 30.283C56.6083 30.1645 57.5328 30.3618 58.3577 30.9279C58.7478 31.1962 59.138 31.4645 59.5851 31.7718L59.5857 31.7713ZM56.4371 31.3342C54.3229 31.3957 52.6681 32.8538 52.8984 35.2251C53.0605 36.895 54.3353 38.4028 56.6105 38.3346C58.41 38.2804 59.7962 36.5345 59.7225 34.7394C59.6465 32.8834 58.0283 31.2454 56.4377 31.3342L56.4371 31.3342Z" fill="white" fill-opacity="0.2"></path>
    <path d="M23.5809 31.8466C23.6024 31.5115 23.6199 31.265 23.6335 31.0174C23.6511 30.7006 23.8264 30.5506 24.1727 30.5612C24.575 30.5729 24.6644 30.6454 24.6672 31.0018C24.6876 33.3378 24.7068 35.6738 24.7204 38.0104C24.7221 38.2876 24.7 38.5669 24.661 38.8413C24.6502 38.9166 24.5461 39.0264 24.472 39.0382C23.7965 39.1436 23.7172 39.0839 23.6143 38.4426C23.5894 38.2887 23.5656 38.1348 23.5288 37.9033C23.2737 38.0712 23.0383 38.1967 22.8375 38.3628C21.9458 39.1028 20.9246 39.4274 19.7608 39.38C18.0103 39.3086 16.1896 37.8219 15.832 36.1305C15.733 35.6632 15.5423 35.2182 15.595 34.7158C15.8445 32.3134 17.1808 30.6912 19.4875 30.3103C20.7028 30.1095 21.801 30.4112 22.7498 31.1997C22.9223 31.3431 23.087 31.4959 23.2607 31.6386C23.3353 31.7 23.4236 31.7457 23.5809 31.8472L23.5809 31.8466ZM23.6318 34.9583C23.6035 32.6842 22.2117 31.3247 19.9407 31.3531C18.1698 31.3754 16.6824 33.0066 16.7033 34.9031C16.7242 36.7657 18.3497 38.3762 20.2145 38.3416C21.9334 38.3099 23.7506 36.7852 23.6312 34.9583L23.6318 34.9583Z" fill="white" fill-opacity="0.2"></path>
    <path d="M81.3462 37.3944C81.6341 37.6142 81.837 37.7716 82.0427 37.9261C82.6214 38.3612 83.2742 38.4247 83.9397 38.1976C84.9928 37.8379 85.2417 36.6469 84.4368 35.883C84.2667 35.7211 84.0569 35.593 83.8511 35.4716C83.4041 35.2091 82.953 34.9533 82.4949 34.7088C81.5304 34.194 81.0951 33.4127 81.1463 32.3526C81.1953 31.3432 81.8218 30.5321 82.8464 30.3123C83.2398 30.228 83.6798 30.2325 84.0773 30.3061C84.8256 30.4455 85.3868 30.9171 85.93 31.4365C85.7406 31.6922 85.5622 31.9333 85.3629 32.2014C85.1467 32.0412 84.9433 31.9013 84.7515 31.7473C84.2451 31.3404 83.674 31.2212 83.0375 31.369C82.2018 31.5635 81.8381 32.4482 82.3761 33.0934C82.6605 33.4346 83.0445 33.7112 83.4198 33.9663C83.8301 34.2451 84.2911 34.4548 84.7166 34.7145C85.8326 35.3957 86.2867 36.4715 85.9352 37.5681C85.5716 38.704 84.4858 39.4392 83.203 39.3813C82.4046 39.3454 81.7035 39.0239 81.0723 38.5686C80.7739 38.3533 80.7634 38.1296 80.9855 37.8452C81.1015 37.6962 81.2204 37.5501 81.3451 37.3927L81.3462 37.3944Z" fill="white" fill-opacity="0.2"></path>
    <path d="M34.293 33.5901C34.293 32.0631 34.2861 30.5362 34.2981 29.0097C34.301 28.6287 34.3527 28.2459 34.4056 27.8672C34.4607 27.4687 34.6876 27.1597 35.0609 27.0032C35.7255 26.7246 36.4079 26.6694 37.0863 26.979C37.2896 27.0719 37.4045 27.4535 37.2913 27.7405C37.2057 27.9572 37.0064 27.8942 36.8255 27.8795C36.5814 27.8598 36.3327 27.8396 36.0908 27.8638C35.7674 27.8959 35.5521 28.1097 35.5279 28.4137C35.482 28.9906 35.4808 29.5709 35.4803 30.15C35.4803 30.2069 35.6078 30.3048 35.6847 30.3133C36.1397 30.3639 36.5969 30.4045 37.0541 30.427C37.2431 30.436 37.2953 30.5024 37.2994 30.6797C37.3103 31.1784 37.1879 31.3202 36.6698 31.3585C36.4125 31.3776 36.1552 31.39 35.8978 31.4119C35.6738 31.4311 35.4894 31.4845 35.5032 31.7738C35.5124 31.968 35.4624 32.1645 35.4624 32.3598C35.4578 34.2239 35.4596 36.088 35.4556 37.9516C35.4556 38.1756 35.4142 38.4002 35.4228 38.6231C35.4326 38.8814 35.3292 38.9799 35.0713 38.9405C34.9966 38.9293 34.9185 38.9388 34.8421 38.9388C34.3039 38.9388 34.297 38.9388 34.2958 38.3957C34.2924 36.7938 34.2947 35.192 34.2947 33.5901L34.293 33.5901Z" fill="white" fill-opacity="0.2"></path>
    <path d="M28.635 33.4407C28.635 31.8691 28.6339 30.2975 28.6362 28.7259C28.6362 28.5382 28.6322 28.3471 28.6645 28.1634C28.8637 27.0356 29.7679 26.7179 30.6659 26.7761C30.8979 26.7914 31.1316 26.8445 31.3557 26.9107C31.6488 26.9971 31.7931 27.6049 31.573 27.8135C31.5232 27.861 31.4157 27.8604 31.3347 27.8598C31.0541 27.8576 30.7678 27.8067 30.4939 27.8463C30.0084 27.9158 29.7996 28.1922 29.7996 28.6739C29.7996 29.1352 29.803 29.5959 29.7984 30.0572C29.7968 30.2263 29.8443 30.3122 30.0355 30.3229C30.439 30.3461 30.843 30.3823 31.2425 30.4405C31.3676 30.4586 31.5583 30.5428 31.5849 30.6344C31.6975 31.0296 31.6386 31.2207 31.3727 31.2924C31.0875 31.3699 30.7825 31.3942 30.4854 31.4021C29.8454 31.4185 29.7962 31.4406 29.752 32.0777C29.726 32.4525 29.7436 32.8301 29.7436 33.2061C29.7436 35.0032 29.7379 36.8009 29.7492 38.5981C29.7509 38.8728 29.6677 38.9774 29.3973 38.9424C29.2954 38.9294 29.1902 38.9407 29.0866 38.9401C28.6622 38.939 28.6447 38.9322 28.6435 38.4924C28.639 36.8077 28.6418 35.1236 28.6418 33.439L28.635 33.439L28.635 33.4407Z" fill="white" fill-opacity="0.2"></path>
    <path d="M43.883 33.0095C43.883 31.5039 43.8796 29.9989 43.8853 28.4934C43.887 28.1296 43.91 27.7653 43.9444 27.4033C43.9506 27.3347 44.0502 27.2678 44.1183 27.2161C44.1487 27.193 44.2089 27.2105 44.2562 27.2099C45.0139 27.2015 45.0212 27.2015 45.0234 27.9582C45.028 29.697 45.0234 31.4364 45.0234 33.1753C45.0234 34.054 45.0032 34.9338 45.033 35.812C45.0583 36.5479 45.1456 37.2815 45.2019 38.0163C45.2143 38.1771 45.2869 38.2429 45.4529 38.2395C45.8368 38.2311 46.2213 38.2451 46.6052 38.2333C46.7718 38.2283 46.8349 38.2929 46.8652 38.4475C46.9542 38.8973 46.9148 38.9855 46.4926 39.1896C45.7479 39.5494 44.8489 39.3982 44.2585 38.8203C43.9478 38.5161 43.8588 38.1383 43.8594 37.7217C43.8616 36.151 43.8605 34.5808 43.8605 33.01C43.8684 33.01 43.8757 33.01 43.8836 33.01L43.883 33.0095Z" fill="white" fill-opacity="0.2"></path>
    <path d="M67.6594 31.4146C67.2173 31.4767 66.8055 31.5455 66.3911 31.587C66.2252 31.6032 66.1682 31.681 66.1554 31.8427C66.1297 32.1662 66.0742 32.4897 66.0758 32.8132C66.0829 34.0401 66.0973 35.2669 66.1322 36.4926C66.1451 36.9365 66.2154 37.3792 66.2724 37.8202C66.3161 38.1605 66.4439 38.2775 66.7659 38.2881C66.9965 38.2954 67.2276 38.2943 67.4581 38.2797C67.6712 38.2663 67.7637 38.3474 67.778 38.5915C67.8078 39.1097 67.7318 39.2373 67.2609 39.3263C66.7639 39.4209 66.2755 39.4248 65.8221 39.1282C65.4072 38.8568 65.1848 38.4571 65.1807 37.9344C65.1715 36.6499 65.174 35.3649 65.1745 34.0804C65.1756 31.9205 65.1833 29.7607 65.1745 27.6009C65.1735 27.3121 65.2855 27.2253 65.515 27.2102C65.8899 27.185 65.9808 27.227 66.0054 27.5454C66.0388 27.9697 66.0316 28.3979 66.0475 28.8243C66.0655 29.2973 66.0942 29.7697 66.1091 30.242C66.1148 30.425 66.2088 30.4805 66.352 30.4911C66.7182 30.5185 67.0838 30.5543 67.4504 30.5711C67.5983 30.5778 67.6717 30.617 67.662 30.7944C67.6507 30.9887 67.6594 31.184 67.6594 31.4151L67.6594 31.4146Z" fill="white" fill-opacity="0.2"></path>
    <path d="M49.4532 35.4098C49.4532 36.4362 49.4569 37.4631 49.4494 38.4895C49.4482 38.6414 49.4102 38.91 49.3618 38.9227C49.1762 38.9706 48.9793 38.944 48.7878 38.9227C48.7649 38.9198 48.7357 38.7783 48.7332 38.6997C48.7023 37.6647 48.6631 36.6303 48.6518 35.5947C48.6385 34.3852 48.6464 33.1752 48.6526 31.9652C48.6547 31.5245 48.6827 31.0838 48.691 30.6431C48.696 30.3745 48.7719 30.255 48.9789 30.2509C49.3656 30.2428 49.4027 30.2769 49.414 30.8066C49.4469 32.3406 49.4807 33.8746 49.5145 35.4093C49.4945 35.4093 49.474 35.4093 49.454 35.4098L49.4532 35.4098Z" fill="white" fill-opacity="0.2"></path>
    <path d="M40.8153 34.6318C40.788 35.8887 40.7621 37.1513 40.7319 38.414C40.7215 38.8425 40.4134 39.0807 40.123 38.8739C40.0681 38.835 40.0357 38.6848 40.0322 38.5837C40.0054 37.8152 39.9808 37.0468 39.97 36.2778C39.9544 35.1574 39.9402 34.0359 39.9471 32.9155C39.9519 32.1094 39.9942 31.3038 40.015 30.4976C40.0193 30.3217 40.0621 30.2537 40.206 30.2514C40.7202 30.2445 40.7198 30.2365 40.7345 30.9221C40.7608 32.1562 40.788 33.3903 40.8153 34.6318Z" fill="white" fill-opacity="0.2"></path>
    <path d="M40.3919 28.5094C39.8658 28.5118 39.5087 28.1899 39.5098 27.7142C39.5108 27.225 39.9129 26.7852 40.373 26.7699C40.8143 26.7552 41.2379 27.2045 41.2494 27.6996C41.2609 28.2035 40.9398 28.5071 40.3919 28.5094Z" fill="white" fill-opacity="0.2"></path>
    <path d="M49.1015 26.7715C49.854 26.7261 50.0916 27.4921 49.8688 28.0835C49.8452 28.1461 49.8073 28.2057 49.765 28.2557C49.5482 28.5156 48.9105 28.5943 48.5855 28.4048C48.2771 28.2247 48.1415 27.8456 48.2414 27.4391C48.3429 27.026 48.6712 26.7709 49.1015 26.7715Z" fill="white" fill-opacity="0.2"></path>
  </g>
  <defs>
    <clipPath id="clip0_1206_49650">
      <rect width="103" height="48" fill="white"></rect>
    </clipPath>
  </defs>
</svg>
