<?xml version="1.0" encoding="UTF-8"?>
<svg xmlns="http://www.w3.org/2000/svg" width="173" height="48" viewBox="0 0 173 48" fill="none">
  <path d="M30.9608 14C31.2646 14.0933 31.5664 14.1925 31.8721 14.278C34.9429 15.1472 36.9719 17.7332 36.9953 20.9298C37.0265 25.2346 37.0031 29.5394 37.0031 33.9979C36.6448 33.9979 36.3371 33.9979 36.0295 33.9979C26.4959 33.9979 16.9623 34.0037 7.42671 33.996C3.67441 33.9921 0.895723 31.9135 0.112939 28.5536C0.0623112 28.3339 0.0116834 28.1084 0.0116834 27.8848C0.00194723 23.2572 0.00194723 18.6276 0 14C10.3203 14 20.6406 14 30.9608 14ZM22.726 30.5175L22.726 17.564L16.8532 17.564L16.8532 23.9785C15.2662 22.4483 13.7318 21.1786 12.4603 19.6854C10.9707 17.9335 9.34667 17.4706 6.97301 17.4668C5.84167 17.4706 4.59155 17.4706 3.468 17.4706C3.468 17.7402 3.468 17.8479 3.468 17.9432C3.46216 20.6945 3.5381 23.4477 3.4349 26.1951C3.33365 28.892 5.5418 31.2602 9.43624 30.3211L9.43624 23.5741C9.76143 23.8599 9.9581 24.0213 10.1411 24.1963C12.1624 26.1115 14.1797 28.0345 16.2087 29.94C16.4579 30.1733 16.7773 30.4844 17.0694 30.4922C18.9387 30.5427 20.81 30.5175 22.7241 30.5175L22.726 30.5175ZM33.4611 30.4786C33.4611 27.1984 33.5643 23.996 33.4202 20.8034C33.3443 19.1098 31.8488 17.7118 30.145 17.5718C28.3827 17.426 26.5971 17.5388 24.7648 17.5388L24.7648 22.2169L27.5999 22.2169L27.5999 30.4786L33.463 30.4786L33.4611 30.4786Z" fill="white" fill-opacity="0.2"></path>
  <path d="M91.5269 27.1201L97.0511 27.1201C97.4281 29.0718 98.989 29.5798 100.633 29.6879C102.338 29.7982 104.065 29.6235 105.78 29.5247C106.143 29.504 106.589 29.366 106.826 29.1201C107.136 28.7959 107.472 28.2948 107.44 27.8994C107.407 27.5109 106.996 26.9339 106.637 26.8304C105.656 26.5499 104.621 26.4304 103.6 26.3293C100.945 26.0695 98.2396 26.0787 95.6373 25.5683C92.5545 24.9637 91.2809 22.8281 91.7959 19.9476C92.0281 18.6511 92.7039 17.6005 93.8901 17.1155C95.2511 16.5591 96.7085 15.943 98.1384 15.9063C101.334 15.8235 104.554 15.9316 107.732 16.2856C109 16.4258 110.272 17.281 111.364 18.0603C112.354 18.7683 112.709 19.9568 112.573 21.3614C110.835 21.3614 109.127 21.3683 107.417 21.3499C106.55 20.5521 105.212 19.4978 103.518 19.4511C101.378 19.2877 100.297 19.3293 98.6625 19.4511C98.0028 19.4994 97.1568 19.9913 97.3798 20.8051C97.5108 21.281 98.1752 21.8787 98.6625 21.9407C100.476 22.1752 102.32 22.1545 104.141 22.3362C106.072 22.5293 108.033 22.6741 109.902 23.1522C112.12 23.7178 113.113 25.1292 113.205 27.166C113.325 29.7775 112.433 31.4787 110.26 32.3453C109.067 32.8212 107.78 33.1913 106.509 33.304C103.154 33.6051 99.7775 33.7775 96.4602 32.966C93.0625 32.1339 91.3959 30.1361 91.5223 27.1247L91.5269 27.1201Z" fill="white" fill-opacity="0.2"></path>
  <path d="M124.252 15.9854C126.084 15.9854 128.046 15.9876 129.885 16.0219C133.534 18.9666 136.756 22.4556 140.093 25.7601C140.428 26.0911 140.459 26.1852 141.015 26.53L141.015 16.0612L146.351 16.0612L146.351 33.2037C144.666 33.2037 142.873 33.2037 141.149 33.1966C139.425 31.5875 132.049 24.3683 130.036 22.4014C129.937 22.3049 129.811 22.2336 129.553 22.0451L129.553 33.1233L124.257 33.1233L124.257 15.9877L124.252 15.9854Z" fill="white" fill-opacity="0.2"></path>
  <path d="M66.8845 22.7486C65.1696 22.7486 63.4546 22.7578 61.7397 22.7348C61.5443 22.7325 61.2523 22.6038 61.1696 22.4475C60.1696 20.567 58.3627 20.0912 56.5144 20.0107C54.8592 19.9371 53.1466 20.0843 51.5351 20.459C49.7029 20.8843 48.7857 22.3072 48.6914 24.19C48.6041 25.9877 49.2753 27.4935 50.8799 28.3119C53.7535 29.7785 56.7075 29.6314 59.6041 28.2958C60.0041 28.1119 60.4661 27.7831 60.6247 27.4061C61.1144 26.2383 62.0224 26.236 63.05 26.2774C64.3397 26.3302 65.6339 26.2912 66.9972 26.2912C66.9926 28.7072 65.8776 30.3946 64.0201 31.5027C62.8293 32.2153 61.4615 32.7831 60.1006 33.0314C56.1926 33.7463 52.25 33.8889 48.4247 32.5394C45.5328 31.5187 43.6178 29.4935 43.165 26.4222C42.7029 23.2866 43.0132 20.2682 45.7259 18.0682C47.3834 16.7256 49.3581 16.1233 51.4408 15.9073C54.7673 15.5624 58.0914 15.5096 61.3512 16.4383C63.0753 16.9279 64.7075 17.6751 65.7397 19.1877C66.4018 20.1578 66.7627 21.3348 67.2569 22.4176C67.1328 22.5279 67.0063 22.636 66.8822 22.7463L66.8845 22.7486Z" fill="white" fill-opacity="0.2"></path>
  <path d="M91.5165 33.2163C89.5809 33.2163 87.2294 33.2508 85.5168 33.1842C85.4018 32.8508 85.3809 32.7796 85.2958 32.4761C84.6866 30.3336 83.3329 30.0186 81.1809 29.9887C79.0288 29.9589 76.8961 29.9887 74.636 30.0186C73.9076 30.0283 72.9352 31.8209 72.7582 32.4761C72.6955 32.708 72.8237 32.2761 72.5283 33.2416C71.7237 33.2416 67.6705 33.2186 66.6406 33.2186C66.8774 32.7037 67.0498 32.3037 67.2452 31.9129C69.7763 26.8968 72.3234 21.8876 74.8314 16.86C75.1418 16.237 75.4705 15.9451 76.2061 15.9681C78.0038 16.0255 79.8061 15.9681 81.6061 16.0071C81.9234 16.014 82.3969 16.191 82.528 16.4347C85.5073 21.9428 88.4498 27.4715 91.5165 33.2163ZM82.0015 26.0899C80.8981 23.968 79.8774 22.0094 78.7487 19.837C77.6567 22.0577 76.6889 24.0232 75.6728 26.0899L82.0015 26.0899Z" fill="white" fill-opacity="0.2"></path>
  <path d="M115.596 16.0264L120.918 16.0264L120.918 33.1505L115.596 33.1505L115.596 16.0264Z" fill="white" fill-opacity="0.2"></path>
  <path fill-rule="evenodd" clip-rule="evenodd" d="M157.2 15.9024C152.473 15.9884 148.686 19.8451 148.686 24.5731C148.686 29.3022 152.474 33.1594 157.203 33.2438L160.915 33.3101L164.412 33.2465C169.14 33.1606 172.927 29.3039 172.927 24.5759C172.927 19.8468 169.138 15.9896 164.41 15.9052L160.697 15.8389L157.2 15.9024ZM158.827 19.8045C156.228 19.8518 154.145 21.973 154.145 24.5734C154.145 27.1744 156.228 29.2958 158.829 29.3423L160.871 29.3787L162.794 29.3438C165.394 29.2965 167.477 27.1753 167.477 24.5749C167.477 21.9739 165.393 19.8524 162.793 19.806L160.751 19.7695L158.827 19.8045Z" fill="white" fill-opacity="0.2"></path>
</svg>
