<?xml version="1.0" encoding="UTF-8"?>
<svg xmlns="http://www.w3.org/2000/svg" width="116" height="48" viewBox="0 0 116 48" fill="none">
  <g clip-path="url(#clip0_1206_49636)">
    <path d="M33.0769 12.7022L28.3611 12.7022L27.4646 15.8385L32.2036 15.8385L33.0769 12.7022Z" fill="white" fill-opacity="0.2"></path>
    <path d="M46.8783 12.7203L45.14 12.7203L42.4868 17.3251L46.8783 17.3251L46.8783 12.7203Z" fill="white" fill-opacity="0.2"></path>
    <path d="M64.5537 12.684L59.8329 12.684L58.9363 15.8204L63.6754 15.8204L64.5537 12.684Z" fill="white" fill-opacity="0.2"></path>
    <path d="M59.3755 29.2905L56.7406 33.8953L61.1138 33.8953L61.1138 29.2905L59.3755 29.2905Z" fill="white" fill-opacity="0.2"></path>
    <path fill-rule="evenodd" clip-rule="evenodd" d="M9.02612 44.791L108.673 44.791L108.676 44.7899C108.729 44.6151 108.784 44.4408 108.838 44.2665L108.839 44.2647L108.839 44.2625C108.958 43.882 109.077 43.5019 109.187 43.1187C110.808 37.472 112.427 31.8254 114.046 26.1783L114.061 26.1261C114.454 24.7554 114.847 23.3848 115.24 22.0141C115.349 21.634 115.454 21.2518 115.559 20.8705L115.578 20.7995C115.594 20.7417 115.604 20.6826 115.617 20.6113C115.623 20.5718 115.631 20.5285 115.641 20.4797C115.087 20.4647 114.546 20.4665 114.01 20.4684C113.768 20.4693 113.527 20.4701 113.286 20.4694C112.766 20.4678 112.246 20.4684 111.725 20.4689L111.724 20.4689C111.464 20.4691 111.203 20.4694 110.943 20.4694L78.16 20.4694L79.0036 17.5476C80.3058 13.0374 81.6014 8.55024 82.8924 4.07706C82.8845 4.06241 82.8795 4.05233 82.876 4.04513C82.8712 4.03537 82.8691 4.03091 82.8657 4.0276C82.8599 4.0207 82.8507 4.0115 82.8426 4.0115C82.8278 4.01033 82.8131 4.009 82.7984 4.00768C82.7557 4.00382 82.7132 4 82.6701 4L7.01813 4C5.79728 8.22372 4.57831 12.4412 3.35861 16.6612L3.2966 16.8757C2.19901 20.6733 1.10078 24.473 5.40829e-08 28.2814L13.6821 28.2814C13.6726 28.3221 13.6641 28.3595 13.6562 28.3947C13.6381 28.4748 13.6227 28.5432 13.6034 28.6103C12.9646 30.8414 12.3249 33.0716 11.6852 35.3024L11.2575 36.7938C11.0984 37.3484 10.9393 37.903 10.7801 38.4575L10.7797 38.4589C10.2143 40.4293 9.64886 42.3996 9.0863 44.3712C9.06054 44.462 9.0511 44.5574 9.04165 44.653C9.03709 44.6991 9.03252 44.7453 9.02612 44.791ZM26.4216 19.41L25.3054 23.2716L6.42237 23.2716L10.6125 8.80435L33.1185 8.80435C36.5584 8.80435 38.132 10.853 37.1623 14.1525L36.7414 15.5847C35.9729 18.1772 34.3261 19.41 31.5998 19.41L26.4216 19.41ZM40.4741 20.8422L39.0835 23.2716L34.1981 23.2716L42.8162 8.78622L51.0867 8.78622L51.0867 23.2716L46.8783 23.2716L46.8783 20.8422L40.4741 20.8422ZM68.6523 14.1344L68.2681 15.4397C67.7192 17.3433 66.6762 18.5398 65.1026 19.0112L66.42 23.2716L61.9188 23.2716L60.6746 19.2831L57.9483 19.2831L56.7955 23.2716L52.4224 23.2716L56.6126 8.78622L64.6086 8.78622C68.0485 8.78622 69.6221 10.7986 68.6523 14.1344ZM76.5569 8.78622L72.3667 23.2716L67.9936 23.2716L72.1655 8.78622L76.5569 8.78622ZM40.5839 31.1034L45.5242 25.3202L51.1965 25.3202L47.0246 39.8236L42.6515 39.8236L45.0668 31.5204L40.9864 36.2884L38.1686 36.2884L36.6316 31.8105L34.3261 39.8236L15.4248 39.8236L19.5966 25.3202L38.5529 25.3202L40.5839 31.1034ZM48.4335 39.8055L57.07 25.3202L65.3222 25.3383L65.3222 39.8055L61.1138 39.8055L61.1138 37.3762L54.7096 37.3762L53.319 39.8055L48.4335 39.8055ZM81.3325 25.3202L80.1432 29.4718L76.0263 29.4718L73.0255 39.8236L68.6523 39.8236L71.6531 29.4718L66.8409 29.4718L68.0302 25.3202L81.3325 25.3202ZM92.6221 29.4718L85.9801 29.4718L84.1504 35.672L90.7924 35.672L89.603 39.8055L84.0955 39.8055C80.6555 39.8055 79.0637 37.8475 80.0517 34.4574L81.607 29.1636C82.3755 26.5711 84.0223 25.3383 86.7486 25.3383L93.8298 25.3383L92.6221 29.4718ZM103.656 30.5052L105.156 25.3202L109.529 25.3202L105.357 39.8236L100.966 39.8236L102.448 34.6387L97.4344 34.6387L95.9523 39.8236L91.5792 39.8236L95.751 25.3202L100.124 25.3202L98.642 30.5052L103.656 30.5052Z" fill="white" fill-opacity="0.2"></path>
  </g>
  <defs>
    <clipPath id="clip0_1206_49636">
      <rect width="116" height="48" fill="white"></rect>
    </clipPath>
  </defs>
</svg>
