<?xml version="1.0" encoding="UTF-8"?>
<svg xmlns="http://www.w3.org/2000/svg" width="189" height="48" viewBox="0 0 189 48" fill="none">
  <path d="M11.9965 24.9701C11.7929 25.9796 11.6081 26.8993 11.3996 27.9348C13.8348 26.3491 16.1772 24.8243 18.5195 23.2995L18.6826 23.4403C18.4602 24.5347 18.2368 25.6291 18.0145 26.7236C19.667 27.0351 21.7523 25.9077 22.6142 24.2561C23.0589 23.4043 23.2506 22.5156 23.0134 21.5619C22.7387 20.4585 21.7909 19.5318 20.6741 19.5069C18.1904 19.451 15.7038 19.4889 13.1677 19.4889C13.0906 19.8304 13.0096 20.1809 12.9325 20.5314C12.4166 22.8821 10.4093 24.6955 8.03926 24.9531C7.53126 25.008 7.46801 24.9351 7.57475 24.4249C8.20728 21.4052 8.84377 18.3865 9.46345 15.3648C9.53757 15.0053 9.68187 14.8595 10.0515 14.8615C13.906 14.8775 17.7615 14.8266 21.614 14.9025C25.509 14.9793 28.2229 18.4604 27.709 22.3728C27.1575 26.5618 23.5382 30.3164 19.2835 31.1443C17.8949 31.4149 16.4331 31.3909 15.009 31.351C13.8872 31.319 12.9611 31.5946 12.0351 32.2337C9.92994 33.6856 7.76451 35.0507 5.61786 36.4407C5.46862 36.5375 5.27095 36.5565 5.09602 36.6114C5.10096 36.4387 5.07922 36.2599 5.11381 36.0932C5.57734 33.8694 6.04383 31.6455 6.5202 29.4237C7.00547 27.1599 8.87836 25.3765 11.1495 25.012C11.3887 24.9741 11.6348 24.987 11.9965 24.9701Z" fill="white" fill-opacity="0.2"></path>
  <path d="M115.541 27.3324C115.541 28.7578 115.504 30.1254 115.555 31.4907C115.555 32.2729 115.555 32.33 115.555 32.5645C114.547 32.5614 111.539 32.5614 110.499 32.5614C110.497 31.9829 110.487 32.2683 110.491 31.4907C110.519 26.4415 110.611 20.3719 110.613 15.3227C110.96 15.3221 110.382 15.3223 111.204 15.3225C114.856 15.4266 118.521 15.3572 122.154 15.6696C125.079 15.9218 126.782 18.1317 126.863 21.1145C126.944 24.0626 125.32 26.2864 122.409 26.7978C120.453 27.1426 118.433 27.1264 116.443 27.2699C116.184 27.2884 115.922 27.3046 115.543 27.3301L115.541 27.3324ZM115.596 23.5096C117.218 23.4054 118.785 23.3707 120.333 23.1833C121.286 23.0676 121.752 22.3456 121.805 21.3969C121.858 20.462 121.541 19.5965 120.583 19.4484C118.947 19.1962 117.276 19.1707 115.596 19.0481L115.596 23.5119L115.596 23.5096Z" fill="white" fill-opacity="0.2"></path>
  <path d="M52.7715 15.5277C56.747 15.5277 60.586 15.1783 64.3325 15.6156C69.0578 16.1664 70.0135 19.7161 69.0323 22.8679C68.6713 24.0272 67.512 24.9389 66.5841 26.1353C67.7295 27.9912 69.0601 30.1479 70.5526 32.566C68.6343 32.566 66.7626 32.5624 65.1428 32.5624C64.8655 32.2487 64.7398 32.057 64.55 31.7469C63.7077 30.3816 62.8631 29.0163 62.0948 27.6094C61.7338 26.9522 61.3034 26.7184 60.5467 26.7254C57.6264 26.7462 57.6264 26.7184 57.6264 29.5624C57.6264 31.5787 57.6264 31.174 57.6263 32.566C55.6709 32.5614 54.4912 32.5624 52.7627 32.5624C52.7581 27.9413 52.7715 21.5489 52.7715 16.9277C52.7715 16.4765 52.7715 16.0252 52.7715 15.5277ZM57.7212 19.1214L57.7212 22.9951C59.3365 22.9951 60.8684 23.0646 62.3933 22.9743C63.7378 22.8956 64.5014 22.0741 64.4667 20.9912C64.432 19.9198 63.7424 19.2186 62.3933 19.1422C60.8707 19.0566 59.3365 19.1214 57.7236 19.1214L57.7212 19.1214Z" fill="white" fill-opacity="0.2"></path>
  <path d="M187.602 20.0905C186.017 20.2363 184.536 20.3844 183.05 20.4908C182.877 20.5024 182.648 20.3196 182.511 20.1668C181.095 18.5817 178.425 18.0749 176.557 19.144C176.212 19.3407 175.838 19.984 175.923 20.301C176.034 20.7083 176.548 21.1966 176.974 21.2938C178.464 21.6386 179.996 21.8121 181.505 22.0921C182.481 22.2749 183.46 22.4763 184.407 22.7655C186.758 23.4782 188.026 25.0703 188.109 27.3126C188.195 29.585 186.984 31.3182 184.654 32.186C182.368 33.0376 179.966 33.151 177.603 32.8339C175.969 32.6141 174.299 32.1282 172.829 31.3992C171.145 30.5639 170.45 28.9024 170.305 26.9678C172.017 26.9678 173.66 26.9678 175.301 26.9678C176.472 29.1384 180.075 30.0733 182.185 28.6987C182.548 28.4627 182.965 27.8796 182.902 27.5394C182.826 27.1298 182.319 26.5906 181.905 26.4888C180.493 26.1463 179.038 25.9844 177.603 25.7344C175.595 25.3827 173.567 25.0518 172.054 23.5014C169.934 21.3285 170.386 17.7556 173.07 16.351C176.712 14.4465 180.537 14.465 184.339 15.8442C186.163 16.506 187.195 17.9662 187.605 20.0928L187.602 20.0905Z" fill="white" fill-opacity="0.2"></path>
  <path d="M109.653 28.6519C109.457 29.7846 109.192 31.3587 108.994 32.5858C107.953 32.5858 106.518 32.5788 105.337 32.5858C101.989 32.6066 98.6383 32.5696 95.2898 32.6089C94.4263 32.6089 94.6406 32.6089 94.0684 32.6089C94.117 27.6013 94.1213 21.4575 94.0842 16.4499C94.0773 15.5868 94.0834 15.7846 94.0742 15.3467C98.346 15.3837 104.729 15.3739 109.001 15.353C109.348 17.064 109.409 17.5552 109.778 19.2707L99.2353 19.2707L99.2353 21.8324L108.596 21.8324L108.596 25.7246L99.2399 25.7246L99.2399 28.6496L109.649 28.6496L109.653 28.6519Z" fill="white" fill-opacity="0.2"></path>
  <path d="M164.605 21.9193C167.16 25.4251 169.673 28.873 172.364 32.5662C170.302 32.5662 168.544 32.6079 166.792 32.5292C166.484 32.5153 166.149 32.0386 165.91 31.7123C164.526 29.8287 163.17 27.9265 161.803 26.0337C161.583 25.7305 161.352 25.4389 161.078 25.0803C160.317 25.7305 159.579 26.2813 158.952 26.9361C158.707 27.193 158.621 27.6813 158.612 28.0677C158.575 29.514 158.595 30.9626 158.595 32.5708C157.001 32.5708 154.926 32.5613 153.502 32.5708C153.502 32.209 153.505 31.872 153.502 31.5203C153.465 27.3133 153.479 23.1041 153.479 18.8971C153.479 17.791 153.479 16.6872 153.479 15.4677L158.568 15.4677L158.568 21.8661C159.945 20.6118 161.104 19.5775 162.24 18.5176C164.611 16.3054 164.529 16.4787 165.686 15.4943C165.903 15.5013 171.047 15.4145 171.605 15.4932C169.15 17.747 166.889 19.8227 164.605 21.9193Z" fill="white" fill-opacity="0.2"></path>
  <path d="M152.692 26.218C152.236 29.8533 149.811 32.26 146.041 32.813C143.746 33.1485 141.436 33.0976 139.203 32.3433C135.443 31.0728 133.201 27.6527 133.462 23.6355C133.756 19.1138 136.327 16.0292 140.559 15.2355C143.408 14.7009 146.243 14.7565 148.871 16.1403C150.806 17.1585 151.912 18.8292 152.359 21.0414C150.76 21.2335 149.008 21.4474 147.522 21.57C147.407 21.3386 147.555 21.6358 147.291 20.9915C146.526 19.1255 144.116 18.9125 142.415 19.1416C140.564 19.3915 139.141 20.8285 138.923 22.6173C138.814 23.5175 138.812 24.4593 138.939 25.3548C139.194 27.1598 140.575 28.4626 142.362 28.7472C144.924 29.1545 146.356 28.576 147.397 26.771C147.536 26.5304 147.522 26.4295 147.638 26.218C149.133 26.1694 151.116 26.2203 152.694 26.2203L152.692 26.218Z" fill="white" fill-opacity="0.2"></path>
  <path d="M86.7898 19.3015L77.0801 19.3015C77.2749 18.3695 77.6378 16.7105 77.9849 15.3792C82.414 15.3537 87.4864 15.3584 91.9131 15.363C92.1006 15.363 92.5221 15.363 92.6791 15.363C92.7948 16.132 93.0262 18.5618 93.0262 19.2564C90.3558 21.906 87.4354 24.8344 84.765 27.484C84.4781 27.7686 84.2097 28.0741 83.726 28.5878L93.371 28.5878C93.1982 29.415 92.5634 31.8675 92.4477 32.5618C89.6103 32.5853 80.5304 32.4361 77.9108 32.4361C77.7326 31.6361 77.4064 29.9006 77.175 28.975C79.8732 26.2999 83.1313 22.9878 85.8295 20.3128C86.091 20.0536 86.3386 19.7782 86.7875 19.3015L86.7898 19.3015Z" fill="white" fill-opacity="0.2"></path>
  <path d="M40.6924 27.3636L40.6924 32.5319C39.1675 32.5319 37.7215 32.5425 36.2726 32.5425C36.0921 32.5355 35.9859 32.5425 35.7545 32.5425C35.7267 27.1207 35.7635 20.9931 35.7635 15.6407C35.8954 15.5203 35.9533 15.4255 36.0088 15.4278C39.7691 15.4972 43.5433 15.4 47.2852 15.7031C50.268 15.9438 51.9364 18.0542 52.0128 20.9537C52.0961 24.1703 50.6012 26.3015 47.5929 26.843C45.7162 27.1808 43.7771 27.167 41.8657 27.3081C41.5278 27.3336 41.1877 27.3428 40.6948 27.366L40.6924 27.3636ZM40.7503 23.5547C42.428 23.446 43.9969 23.4159 45.5427 23.2192C46.5516 23.0896 46.9705 22.326 46.9936 21.317C47.0144 20.2896 46.5562 19.5213 45.5774 19.3941C44.0015 19.1881 42.3979 19.1974 40.7503 19.1141L40.7503 23.557L40.7503 23.5547Z" fill="white" fill-opacity="0.2"></path>
  <path d="M132.645 15.4629L132.645 32.4758L127.672 32.4758L127.672 15.4629L132.645 15.4629Z" fill="white" fill-opacity="0.2"></path>
  <path d="M76.1992 32.5168L71.2656 32.5168L71.2656 15.46L76.1992 15.46L76.1992 32.5145L76.1992 32.5168Z" fill="white" fill-opacity="0.2"></path>
</svg>
