<?xml version="1.0" encoding="UTF-8"?>
<svg xmlns="http://www.w3.org/2000/svg" width="137" height="48" viewBox="0 0 137 48" fill="none">
  <path d="M71.2962 38C71.2987 36.0588 71.3116 34.1187 71.303 32.1776C71.2825 27.1812 71.2542 22.1858 71.2285 17.1895C71.2285 17.0435 71.2285 16.8965 71.2285 16.6644C72.1253 16.6644 72.9895 16.6794 73.8529 16.6614C75.8477 16.6194 77.8434 16.5524 79.8383 16.5134C81.4836 16.4814 83.0913 16.7264 84.5354 17.7165C86.7119 19.2096 87.4793 21.5718 87.3996 24.38C87.3251 27.0372 86.1825 28.8163 84.0318 29.7474C83.8862 29.8104 83.7406 29.8764 83.5479 29.9614C84.019 30.8995 84.5894 31.6655 85.4579 32.0765C86.323 32.4866 87.2189 32.3296 88.1362 32.2576C88.2065 34.0217 88.2767 35.7738 88.3478 37.5409C87.1821 37.966 86.0318 37.94 84.8815 37.845C82.0327 37.6109 80.1672 35.7588 78.9329 32.8926C78.7351 32.4336 78.5535 31.9645 78.383 31.4905C78.288 31.2255 78.1578 31.1085 77.8991 31.1275C77.5171 31.1555 77.1325 31.1345 76.7728 31.1345L76.7728 37.998L71.2945 37.998L71.2962 38ZM76.5809 26.2651C77.2944 26.2651 77.9445 26.2811 78.5946 26.2601C79.1625 26.2421 79.7406 26.2501 80.2948 26.1281C81.3072 25.9061 81.9033 25.009 81.8819 23.879C81.8588 22.6629 81.2884 21.8008 80.2348 21.6558C79.3501 21.5338 78.4464 21.5998 77.5505 21.5958C77.2156 21.5938 76.8807 21.6288 76.5801 21.6458L76.5801 26.2651L76.5809 26.2651Z" fill="white" fill-opacity="0.2"></path>
  <path d="M57.1729 37.9995C56.4791 37.9465 55.7844 37.8945 55.0059 37.8345C55.2191 30.716 55.4324 23.5935 55.6465 16.459C60.151 16.552 64.6203 16.644 69.1205 16.737L69.1205 21.8714L60.6957 21.8714C60.6957 22.7274 60.6846 23.6015 60.712 24.4736C60.7146 24.5656 60.9415 24.7216 61.0675 24.7246C62.8781 24.7686 64.6897 24.7936 66.5012 24.8196C66.9398 24.8256 67.3783 24.8196 67.8417 24.8196L67.8417 29.8529L60.6092 29.8529L60.6092 32.8672L69.243 32.8672L69.243 37.9985L57.1737 37.9985L57.1729 37.9995Z" fill="white" fill-opacity="0.2"></path>
  <path d="M136.779 15.1794C135.964 15.3194 135.149 15.4524 134.335 15.6024C133.578 15.7424 132.824 15.9004 132.018 16.0604C132.759 21.4118 133.495 26.7232 134.238 32.0916C132.419 32.4186 130.653 32.7356 128.84 33.0606C128.155 27.6763 127.478 22.3549 126.798 16.9985C125.168 17.2645 123.592 17.5215 121.95 17.7896C121.748 16.0544 121.551 14.3593 121.354 12.6692C126.311 11.7761 131.218 10.8911 136.164 10C136.334 11.1111 136.504 12.2352 136.678 13.3572C136.7 13.5013 136.745 13.6413 136.779 13.7833L136.779 15.1784L136.779 15.1794Z" fill="white" fill-opacity="0.2"></path>
  <path d="M90.2294 37.4936C89.9125 30.3551 89.5982 23.2506 89.2813 16.1011C90.1086 16.0431 90.9018 15.9891 91.6941 15.9321C93.8576 15.7761 96.0195 15.5971 98.1839 15.469C99.5801 15.386 100.948 15.5781 102.214 16.3431C104.746 17.8742 105.431 21.8665 103.531 24.2127C103.084 24.7647 102.485 25.1507 101.959 25.6118C102.248 25.7098 102.583 25.8098 102.911 25.9368C105.153 26.8049 106.026 28.753 105.825 31.3822C105.619 34.0704 104.152 35.5065 102.082 36.2985C100.835 36.7756 99.5372 36.8576 98.2439 36.9566C95.7394 37.1476 93.2341 37.3176 90.7296 37.4936C90.5763 37.5046 90.423 37.4946 90.2303 37.4946L90.2294 37.4936ZM95.4336 32.7993C95.9202 32.7683 96.3467 32.7583 96.7698 32.7103C97.5064 32.6263 98.2559 32.5953 98.9711 32.4003C99.8893 32.1502 100.323 31.3592 100.267 30.3001C100.209 29.201 99.6931 28.423 98.7492 28.367C97.5784 28.297 96.3989 28.425 95.1878 28.469C95.2726 29.9731 95.3514 31.3582 95.4328 32.8003L95.4336 32.7993ZM94.7244 20.0814C94.7955 21.4155 94.8581 22.6876 94.9429 23.9577C94.9489 24.0477 95.1279 24.1977 95.2195 24.1917C96.1154 24.1327 97.0139 24.0827 97.9039 23.9577C98.9274 23.8126 99.5098 22.9766 99.4447 21.8525C99.3728 20.6054 98.7518 19.8594 97.6949 19.8744C96.7296 19.8884 95.7651 20.0044 94.7244 20.0814Z" fill="white" fill-opacity="0.2"></path>
  <path d="M5.46329 25.0297C5.45559 25.2077 5.45815 25.3547 5.44188 25.4987C5.3331 26.5078 5.67742 27.2659 6.43459 27.7239C7.6183 28.44 8.88767 28.686 10.2067 28.431C10.9339 28.2899 11.3553 27.7429 11.4512 26.9378C11.5317 26.2598 11.2774 25.6378 10.6136 25.3157C9.67053 24.8587 8.69152 24.4977 7.71851 24.1296C6.34722 23.6096 4.99992 23.0416 3.80164 22.0725C1.65263 20.3344 1.19011 17.8062 2.01408 15.136C2.74983 12.7518 4.3344 11.4647 6.40033 11.0527C9.25683 10.4837 12.008 10.9967 14.5296 12.6928C16.6871 14.1439 17.5274 16.6641 17.2045 19.4543C16.3514 19.3233 15.4974 19.1953 14.6435 19.0623C13.7981 18.9303 12.9527 18.7943 12.1296 18.6633C12.0962 18.5982 12.0731 18.5732 12.0696 18.5442C11.8512 16.6101 10.9305 15.8621 9.0958 15.692C8.7078 15.656 8.29924 15.737 7.91723 15.8471C7.32708 16.0171 7.02473 16.5231 6.9485 17.2121C6.87655 17.8642 7.10696 18.4082 7.59175 18.6613C8.4714 19.1193 9.39044 19.4743 10.2949 19.8653C11.56 20.4134 12.8773 20.8374 14.0842 21.5235C17.2131 23.3016 17.8452 28.0289 15.4238 30.9731C14.1775 32.4882 12.6024 33.1353 10.8688 33.2863C8.33864 33.5073 5.8907 33.0213 3.57895 31.7962C1.89246 30.9021 0.587975 29.553 0.134875 27.3409C-0.0706904 26.3358 -0.03386 25.3297 0.173418 24.3347C0.197401 24.2197 0.381553 24.0516 0.469775 24.0676C2.128 24.3727 3.78194 24.7017 5.46158 25.0307L5.46329 25.0297Z" fill="white" fill-opacity="0.2"></path>
  <path d="M30.9063 14.4945C32.6467 14.6815 34.3306 14.8626 36.0617 15.0496C35.9795 16.2417 35.9041 17.3957 35.8201 18.5478C35.6308 21.143 35.4587 23.7402 35.2386 26.3314C35.1281 27.6305 35.0339 28.9526 34.7486 30.2077C34.06 33.2399 32.3358 35.136 29.6943 35.7521C27.2027 36.3331 24.7487 36.0331 22.419 34.817C19.8589 33.4799 18.5767 31.0827 18.5235 27.8655C18.4987 26.3834 18.7034 24.8923 18.8567 23.4122C19.2053 20.0539 19.5865 16.6997 19.9548 13.3444C19.9616 13.2804 19.9796 13.2174 20.0105 13.0654C21.7124 13.3024 23.4126 13.5395 25.1564 13.7825C25.0862 14.5615 25.0228 15.2986 24.9517 16.0346C24.6126 19.5289 24.2562 23.0201 23.935 26.5164C23.6507 29.6066 25.3911 30.5977 27.4708 30.3827C28.8284 30.2417 29.6249 29.1436 29.7825 27.3555C30.1405 23.2962 30.4772 19.2339 30.8249 15.1736C30.8429 14.9616 30.8754 14.7516 30.9071 14.4955L30.9063 14.4945Z" fill="white" fill-opacity="0.2"></path>
  <path d="M122.285 34.1704C117.539 34.7975 112.856 35.4165 108.095 36.0456C107.505 28.873 106.922 21.7685 106.338 14.673C110.788 14.087 115.187 13.5079 119.645 12.9209C119.834 14.603 120.026 16.3021 120.225 18.0693C117.483 18.4533 114.786 18.8323 112.015 19.2203C112.099 20.1594 112.183 21.0885 112.274 22.1066C114.65 21.7825 116.992 21.4625 119.411 21.1325C119.594 22.7896 119.776 24.4237 119.966 26.1488C117.561 26.4849 115.18 26.8169 112.757 27.1549C112.848 28.157 112.937 29.1241 113.032 30.1721C115.931 29.7681 118.794 29.3691 121.698 28.964C121.89 30.6672 122.08 32.3553 122.285 34.1704Z" fill="white" fill-opacity="0.2"></path>
  <path d="M38.4991 15.2862C39.4232 15.3612 40.3003 15.4352 41.1783 15.5042C43.2116 15.6652 45.2484 15.7752 47.2767 15.9972C49.4565 16.2362 51.388 17.1423 52.6899 19.3194C55.3263 23.7278 53.2141 29.7152 48.6617 30.8173C47.46 31.1083 46.254 31.0593 45.0437 30.9683C44.3345 30.9143 43.6245 30.8643 42.8442 30.8063C42.7234 32.9094 42.6044 34.9826 42.4802 37.1357C40.6618 36.9837 38.8802 36.8347 37.043 36.6817C37.5295 29.5312 38.0126 22.4297 38.4991 15.2852L38.4991 15.2862ZM43.1268 25.7189C43.9517 25.7759 44.7294 25.8489 45.5088 25.8749C45.9174 25.8889 46.3405 25.8819 46.7354 25.7769C47.6724 25.5269 48.1786 24.7428 48.224 23.5827C48.2685 22.4427 47.806 21.5936 46.9024 21.2386C45.7769 20.7965 44.5992 20.9576 43.4078 20.8076C43.3127 22.4747 43.2219 24.0698 43.1277 25.7189L43.1268 25.7189Z" fill="white" fill-opacity="0.2"></path>
</svg>
